<svg xmlns="http://www.w3.org/2000/svg" width="618" height="533"><path d="M285.369 355.842h4.85q-1.005.723-2 1.459a19.381 19.381 0 0 1-2.849-1.459m-1.549 0h1.065c-.447.25-.9.5-1.343.748.1-.279.194-.523.278-.748m-70.212 41.963l.308-.089-.282-.239-.07.051.044.277m21.469-13.159l3.526-1.979a1.838 1.838 0 0 0-.672-1.566c-.45.3-.9.606-1.355.92a4.052 4.052 0 0 0-1.5 2.625m-20.007-5.476c.3-.207.6-.4.889-.619a2.217 2.217 0 0 1-1.788-1.226c-1.773.718-1.28 1.844-.7 2.936.513-.335 1.017-.687 1.52-1.038l-.363-.671.437.618m8.516-8.17l.259-.056a31.754 31.754 0 0 0 1.881-2.743c-.688.285-1.377.623-2.065.988l-.075 1.811m-17.787-15.153h77.84a17.006 17.006 0 0 1-4.681 5.125 19.376 19.376 0 0 0-7.92 1.938l.475.152.353 1.823-5.9 3.765-.158-2.786q-1.389.909-2.768 1.884c-1.791 1.286-3.586 2.616-5.416 3.879a20.46 20.46 0 0 1-9.942 7.949c.412-1.092 1.057-2.019 1.372-3.163-.661.256-1.33.494-2.011.693-.549 1.513 1.458 3.273-1.267 4.624a1.619 1.619 0 0 1-1.018.5 1.543 1.543 0 0 1-1.143-1.063 1.64 1.64 0 0 0-.856-1.063.518.518 0 0 0-.327.147 11.974 11.974 0 0 0-.926 1.763 5.364 5.364 0 0 1-.976 1.934l-.058.077-.445.564-.212.195a11.814 11.814 0 0 1-6.936 3.234l-.2-.274a8.9 8.9 0 0 1-1.32.1 13.612 13.612 0 0 1-2.865-.345c-.918.618-1.832 1.235-2.76 1.852a18.621 18.621 0 0 1-5.494 3.711c.11.239.222.493.343.8l-1.055-.447a95.816 95.816 0 0 0-3.931 2.633l2.645 1.675a264.114 264.114 0 0 1-7.057 6.432c.47.3.628.261 1.828 1.936a.929.929 0 0 0-.452-.206c-.192 0-.192.239-.192.478s0 .478-.192.478a.285.285 0 0 1-.049 0 22.757 22.757 0 0 0-1.435-2.258c-1.135.99-2.259 2-3.424 2.945a.632.632 0 0 1-.405.115 3.652 3.652 0 0 1-.953-.192l-.12.119v-3.239l.14-.035 1.972-1.916-.312-.2c-.6.491-1.2.983-1.8 1.477v-47.8m308.419-.137a1.252 1.252 0 0 1 .574.137h-1.223a1.779 1.779 0 0 1 .649-.137m30.58-.28a1.812 1.812 0 0 1 1.061.417h-1.925a1.121 1.121 0 0 1 .864-.417m10.835-1.518c.362 0 .685.357.975 1.548a.728.728 0 0 0-.53-.252 1.8 1.8 0 0 0-.925.436c-.1.07-.2.14-.3.2h-1.143a3.753 3.753 0 0 1-.765-1.511 1.136 1.136 0 0 0 .8.371 1.975 1.975 0 0 0 1.009-.4 1.912 1.912 0 0 1 .875-.4m-17.709-7.622a2.317 2.317 0 0 1 1.981 1.267c-2.532.032-3.966 1.758-5.84 1.758a3.115 3.115 0 0 1-.936-.146c1.036-.674 3-2.879 4.795-2.879m-38.477-14.299a3.239 3.239 0 0 1 1.789.867 1.541 1.541 0 0 1-.684.18 1.849 1.849 0 0 1-1.446-1 1.167 1.167 0 0 1 .341-.049m6.94-2.825c.608.648.244 1.252-.2 1.252a.8.8 0 0 1-.685-.69l.889-.562M96.979 300.813l.8 1.044-1.037 1.361-1.114-1.463 1.352-.942m466.986-6.913a.849.849 0 0 1 .247.038 1.68 1.68 0 0 1-1.325 1.822 1.411 1.411 0 0 1-1.023-.563h.018a1.594 1.594 0 0 0 1.039-.649 1.6 1.6 0 0 1 1.044-.648M63.923 280.2a1.724 1.724 0 0 1 1.069.71c.244.58.174 1.94-.558 1.94-.405 0-1.013-.416-1.883-1.611a.5.5 0 0 0 .093.009.866.866 0 0 0 .639-.524.866.866 0 0 1 .64-.524m-6.282-17.587c.645 0 1.6.538 3.195 2.02a1.869 1.869 0 0 0-.544-.091 1.332 1.332 0 0 0-1.1.668 1.2 1.2 0 0 1-.854.668c-.427 0-1.066-.406-2.2-1.666.416-.84.74-1.6 1.506-1.6m-16.779-6.3a2.023 2.023 0 0 1 1.064.6.964.964 0 0 0-.26-.041.612.612 0 0 0-.56.492.574.574 0 0 1-.4.492 1.654 1.654 0 0 1-.891-.565.589.589 0 0 0 .176.031.544.544 0 0 0 .437-.5.544.544 0 0 1 .438-.5m4.332-2.9a1.314 1.314 0 0 1 .333.045c.143.61-.123.879-.584.879a2.549 2.549 0 0 1-1.1-.327 3.166 3.166 0 0 1 1.349-.6m33.073-3.693a1.47 1.47 0 0 1 .814.578c-.024.227-.1.363-.258.363a1.045 1.045 0 0 1-.565-.3c-.211-.353-.2-.642.009-.642m-5.646-1.072a5.212 5.212 0 0 1 2.491.943c-1.766 1.3-.694 4.982-3.092 5.081a3.593 3.593 0 0 1-1.481-1.486c.574-1.443.112-4.538 2.082-4.538m-4.574-1.886a9.4 9.4 0 0 1 2.07 1.773 7.978 7.978 0 0 1-2-1.3c-.169-.339-.174-.473-.075-.473m7.458-.368a2.152 2.152 0 0 1 1.046.359c-.109.384-.111 1.7-.839 1.7a2.373 2.373 0 0 1-1.417-.915c.287-.393.485-1.141 1.21-1.141m-23.695-.351a1.865 1.865 0 0 1 1.1.5c.1 2.728-5.136 4.119-6.033 6.053-1.085-.621-1.8-.522-3.219-1.782-.191-.422-.094-.543.128-.543a2.568 2.568 0 0 1 .557.107 2.605 2.605 0 0 0 .6.107.342.342 0 0 0 .3-.114 13.172 13.172 0 0 1 5.878-3.2.832.832 0 0 1 .7-1.12m29.463-.471a4.258 4.258 0 0 1 1.288.845c-.234.128.445.845.07.885a5.931 5.931 0 0 1-1.489-1.651.135.135 0 0 1 .131-.079m6.5-1.452c.278 0 .871.53 2.016 2.064a.358.358 0 0 0-.089-.012.627.627 0 0 0-.448.438.629.629 0 0 1-.45.438 1.518 1.518 0 0 1-.907-.741c-.19-.767-.577-2.187-.122-2.187m-3.673-.929a1.747 1.747 0 0 1 .938.639c.4.789.212 1.055-.213 1.055a6.2 6.2 0 0 1-2.151-.778c-.209-.465-.076-.682.23-.682a2.6 2.6 0 0 1 1.49.82c-.517-.689-.543-1.054-.294-1.054m16.811-4.163c-3.037 4.844-8.712 17.067-14.956 17.067a4.489 4.489 0 0 1-.566-.034c3.658-5.7 8.544-14.061 15.522-17.033m.675-3.171a2.7 2.7 0 0 1 1.843 1.258c-.831.012-1.056 1.477-1.894 1.477a1.646 1.646 0 0 1-1.032-.544c-.247-.908.155-2.19 1.083-2.191m-16.366-1.762c.564 0 1.4.641 2.916 2.91a1.247 1.247 0 0 0-.72-.277 1.317 1.317 0 0 0-.676.245 1.324 1.324 0 0 1-.677.245c-.486 0-1.153-.429-2.341-2.091.562-.2.854-1.032 1.5-1.032m436.6 49.264l.042-.194c-.5.4-1.013.809-1.47 1.186a14.748 14.748 0 0 1-1.544 2.042 4.162 4.162 0 0 0 1.314-.6c.561-.414.727-1.451 1.233-2l.5-.471-.071.037m5.617-4.71c.567-.387 1.178-.734 1.763-1.1l-.018-.323c-.584.473-1.156.957-1.745 1.427m2.994-1.874c.72-.437 1.425-.885 2.158-1.309.029-.369.039-.723.041-1.063-.919.765-1.854 1.518-2.784 2.276l.525-.07.06.166m5.024-2.945l.27-.154.279-.394-.7-.625.146 1.173m32.723-5.912c.365-.18.727-.379 1.092-.6.158-.3.315-.589.48-.864-.525.489-1.051.974-1.572 1.464m-21.229-1.679q.876-1.175 1.8-2.283l-.994-1.072q-.931 1.094-1.82 2.255l1.019 1.1m-32.926-.371c2.18-1.911 4.01-3.863 5.8-5.6-2.629 1.727-5.175 3.361-7.574 4.931-.943.746-1.926 1.457-2.88 2.176q-.656 1.259-1.4 2.412l1.557-1.132c1.542-1.115 3.41-2.632 4.6-2.915l-.1.13m64.346-23.142l-.449-.393.1.357.347.036m.613-1.177l.025-.282-.481-.327-.019.289.475.32m-14.348-13.929l-.515-.7.021.332.494.372m4.782-3.856l1.408-.117-.45-.535-1.405.119.447.533M416.8 219.616q1.806-.969 3.585-1.945c-1.319.471-2.625.942-3.929 1.413l.344.532m49.566-18.241a9.085 9.085 0 0 1-2.9-1.185c-.3.727.94 1.459.581 2.252-.391-.083-.951-1.791-1.329-1.791a.133.133 0 0 0-.028 0c-.42.227-.837.425-1.253.624a6.7 6.7 0 0 0-1.825 3.136h.152c.247 0 .5-.02.743-.044l-.172-.6c.311-.071.6-.177.9-.26a.99.99 0 0 1-.475-.677l.783-.46a.905.905 0 0 1 .234.981 30.635 30.635 0 0 0 4.569-1.8l.07-.185h-.046m.67-1.346a6.478 6.478 0 0 1 .4-.63 1.523 1.523 0 0 1-.6-.207 6.111 6.111 0 0 1 .2.837m4.6-2.374l-.037-.607c-.316.05-.262.383-.205.719h.138l-.055-.11.159-.006.008.126-.112-.01.314.628c.334-.213.668-.412 1-.611l-.159-.177-1.052.044m-56.2 4.1c3.859-1.422 7.741-2.871 11.619-4.344a8.088 8.088 0 0 1 2.791-2.028c-.343.008-.679.02-1.015.03-.927.338-1.821.712-2.738 1-2.814 2.52-6.339 3.25-9.895 4.319l-.106.028.176.174c-.269.286-.556.548-.832.825m15.578-6.869l.5-.192-.477.1-.021.1m46.359 1.041a22.668 22.668 0 0 1 5.291-1.427l.095-1.53a21.762 21.762 0 0 1-7.894 2.944 4.061 4.061 0 0 1 .232.68 11.89 11.89 0 0 1 2.139-.758l.137.091m-65.169-18.276h189.323a6.49 6.49 0 0 0 1.317 1.865 3.637 3.637 0 0 0-1.282 2.212c-1.429-.272-2.046-1.626-2.615-3.139a15.1 15.1 0 0 1-3.646 2.344c3.555 3.338-2.786 4.631.464 6.357 2.884-2.011 5.083-5.758 8.119-5.759a4.728 4.728 0 0 1 2.624.895c-9.017 6.239-17.579 18.384-26.383 20.2.434-.279.051-1.26-.544-1.26a.574.574 0 0 0-.174.028 27.375 27.375 0 0 0-3.374 1.2 12.99 12.99 0 0 0 .232 2.516l.391.445-.184.455c.056.218.1.432.168.653l-.38-.127a9.768 9.768 0 0 1-3.6 3.226 3.389 3.389 0 0 0 .472.029c.129 0 .259 0 .389-.009s.259-.009.389-.009a2.068 2.068 0 0 1 1.895.957c-2.247 3.866-7.374 3.9-11.636 6.1l.489.146.425-.218a.456.456 0 0 1 .31-.151 1.343 1.343 0 0 1 .771.829c.439.135.874.267 1.337.412l.081-.121c9.371-5.265 18.221-15.193 24-18.746-5.519 8.549-14.526 15.23-24.2 21.446a2.159 2.159 0 0 0 .424.044 2.036 2.036 0 0 0 1.059-.335 1.972 1.972 0 0 1 1.021-.336 4.843 4.843 0 0 1 2.561 1.17l-1.323 1.413 6.486.934c.219 2.873-3.014 1.854-4.948 2.46l1.28 3.248h.035c.116 0 .289.023.484.046a5.43 5.43 0 0 0 .62.045.907.907 0 0 0 .753-.248 2.406 2.406 0 0 1 2.113-.965 10.4 10.4 0 0 1 3.59.878 6.631 6.631 0 0 0 2.58.458c.27 0 .541-.008.819-.017s.562-.017.86-.017.6.008.922.032c.693 2.449-.433 2.984-2.05 2.984a18.345 18.345 0 0 1-2.027-.161 18.249 18.249 0 0 0-2.007-.161 2.211 2.211 0 0 0-1.82.6 5.954 5.954 0 0 0 2.413.47c.219 0 .435-.007.651-.015s.433-.014.656-.014c1.276 0 2.738.241 5.319 2.108.818 1.815.139 2.138-.856 2.138-.277 0-.577-.025-.877-.049s-.6-.05-.872-.05a2.382 2.382 0 0 0-.6.062 39.922 39.922 0 0 0-3.971 1.38l2.656 5.435c1.219-.3 2.424-.58 3.892-.894l3.682 5.635c-.759 1.3-.619 3.45-2.17 3.453-6.528.031-7.9 5.3-11.75 8.129a70.456 70.456 0 0 0-5.72 4.761 2.014 2.014 0 0 1 .568-.081 2.691 2.691 0 0 1 .816.138 6.707 6.707 0 0 1 3.328-1.2 3.209 3.209 0 0 1 1.365.3c.3.724.541.9.8.9a1.462 1.462 0 0 0 .4-.085 1.655 1.655 0 0 1 .478-.085 2.067 2.067 0 0 1 1.488.926c.829.563-3.049 4.78-2.207 5.467a40.089 40.089 0 0 1-2.248 4.836 45.256 45.256 0 0 1-2.9 4.384 67.885 67.885 0 0 1-6.831 7.923c-4.809 5-9.9 9.357-13.588 14.385a.489.489 0 0 1-.426.236 1.9 1.9 0 0 1-.744-.25 1.9 1.9 0 0 0-.741-.25.463.463 0 0 0-.336.132c-9.258 6.107-19.368 16.451-29.035 18.39.988 2.28-1.009 1.456-1.778 2.362a.233.233 0 0 1-.111.027 1.37 1.37 0 0 1-.714-.554 1.368 1.368 0 0 0-.713-.554.305.305 0 0 0-.255.172c-.892.046.079 1.292-.577 1.493a2.767 2.767 0 0 0-1.41-.5 1.928 1.928 0 0 0-1.469.948 1.874 1.874 0 0 1-1.372.948 1.687 1.687 0 0 1-.667-.156c.566 1.8.076 2.328-.752 2.328a11.242 11.242 0 0 1-3.052-.931c-.356.787 1.013 1.411.59 2.272-.431-.044-1-1.714-1.427-1.714a.143.143 0 0 0-.046.007c-5.008 2.927-9.648 4.082-15 7.455-.474.356.777 2-.067 2.081a.233.233 0 0 1-.1.023 1.618 1.618 0 0 1-.807-.822 1.616 1.616 0 0 0-.806-.823.311.311 0 0 0-.249.157 63.034 63.034 0 0 1-7.843 3.878c3.034 6.309 7.119 9.889 10.614 14.694a9.923 9.923 0 0 1-2.07 1.937h-79.171V222.065q2.035-1.072 4.045-2.149l-.374-.621q-1.853.672-3.671 1.341v-26.885c3.074-1.129 6.211-2.269 9.467-3.447a2.446 2.446 0 0 0 .375-1.286c-2.53.918-5.028 1.78-7.512 2.563a8.387 8.387 0 0 1-1.632 1.434q-.346.225-.7.441v-15.8M99.564 347.1q2.243-2.352 4.393-4.868l-2.194-2.655q-2.122 2.543-4.336 4.931l2.137 2.592m28.631-23.31l.376-.227-.019-.232-.357.459m-16.788 7.155a109.243 109.243 0 0 0 11.5-5.488l-3.1-7.087c.192 7.337-4.119 8.009-7.438 8.723q-1.421 1.578-2.891 3.088l1.924.764m23.62-22.718a29.117 29.117 0 0 1-1.034-.914 26.049 26.049 0 0 1-5.175-.9c-.437-.683-.9-1.3-1.365-1.9-.591.325-1.186.64-1.774.972l1.176 5.475-3.071.257 4.877 11.591 3.752-1.414q3.852-2.08 7.813-3.858l-.094-.3-.058-.024h.049c-.993-3.117-1.366-4.485-.925-5.35-.323-.4-.631-.775-.987-1.21a51.77 51.77 0 0 1-1.106-3.32 18.06 18.06 0 0 1-1.308.044c-.353 0-.71-.008-1.072-.022.111.3.233.6.3.869M63.394 217.78l.09-.047-.076-.009-.014.056m17.28-2.39c.342-.205.683-.412 1.039-.6a6.63 6.63 0 0 0-.4-.744 3.306 3.306 0 0 0-.579-.053 2.751 2.751 0 0 0-1.873.741c-.519.966-1.034 1.935-1.493 2.946l.267-.214A6.324 6.324 0 0 0 79.574 215a5.092 5.092 0 0 0 1.1.388m-10.939-1.123q1.854-1.142 3.613-2.373a5.21 5.21 0 0 0-3.613 2.373m32.2-4.748l.654-.473a1.233 1.233 0 0 0-.654.473M74.353 211.2a74.65 74.65 0 0 0 3.573-2.755 6.166 6.166 0 0 1-2.773.615 9.239 9.239 0 0 1-2.064-.25c-1.093 0 .462 1.484 1.264 2.39m26.18-16.922v-.282l-.528.186a51.3 51.3 0 0 0-9.181 6.049l.212-.016c-2.7 4.949-8.052 6.7-7.033 12.615l.295-.236c.88-.5 2.321-.819 2.894-1.9a22.481 22.481 0 0 1 3.392-4.641 8.129 8.129 0 0 1 1.695-2.011c.55-1.6 1.666-3 3.279-3a3.04 3.04 0 0 1 .637.069q1.607-1.239 3.2-2.46l.368-.558a6.774 6.774 0 0 1-2.082-.854c1.23-1.268 1.234-2.98 2.605-2.98a1.882 1.882 0 0 1 .252.017m55.918 1.673l.279-.048c.659-.5 1.316-1.006 1.975-1.5a5.889 5.889 0 0 1-1.4-.359c.121-.193.243-.41.364-.617-2 .734-4.013 1.2-6.021 2.686a.987.987 0 0 0 .172.694 5.227 5.227 0 0 1 3.078-1.282 4.077 4.077 0 0 1 .252 1.014 2.454 2.454 0 0 1 .848-.506 3.6 3.6 0 0 1-.9-1.059.359.359 0 0 1 .047 0 2.555 2.555 0 0 1 1.309.983m-76.332 10.638A85.389 85.389 0 0 0 93.9 190.777a1.94 1.94 0 0 0-.2-.01c-1.042 0-1.35.8-1.619 1.6s-.5 1.6-1.392 1.6A5.528 5.528 0 0 1 88 192.782l-2.355-1.688c.384 1.167 1.764 2.589 2.142 3.574a1.582 1.582 0 0 0-.893-.321 1.934 1.934 0 0 0-.7.168 1.977 1.977 0 0 1-.709.167 2.145 2.145 0 0 1-1.381-.673 7.6 7.6 0 0 0 1.655 1.633.54.54 0 0 1-.6.326 6.56 6.56 0 0 1-1.44-.272 6.609 6.609 0 0 0-1.427-.271.479.479 0 0 0-.593.429l.967.631a3.967 3.967 0 0 1 1.036-.138 3.254 3.254 0 0 1 1.183.209c-.556 1.6-.158 4.037-1.747 4.037a2.4 2.4 0 0 1-.737-.135 14 14 0 0 1-2.274 6.127m14.055-16.892a8.765 8.765 0 0 1-1.054-.058 2.628 2.628 0 0 0 .919.928c.2-.288.388-.586.583-.877-.148 0-.3.007-.448.007m9.152-6.01l.378-.246a7.686 7.686 0 0 1-1.512-1.189 8.691 8.691 0 0 0 1.134 1.435M77.6 177.655h128.2v178.187H24.611c2.643-2.728 5.212-5.557 8.448-7.608 8.918-5.681 16.987-12.511 25.033-19.278 7.283-6.136 14.8-12.029 23.92-16.09 2.548-1.134 4.325-3.33 5.58-4.458a23.286 23.286 0 0 0 5.169.625c8.578 0 12.544-5.836 17.78-9.773a147.838 147.838 0 0 1 5.584-4.228c-.459-.357-.918-.714-1.365-1.1 5.207-7.567 15.039-9.878 19.94-18.186a16.617 16.617 0 0 1 .84-6.208l-.319.221-.636-.959-.516.436c-4.326 7.959-11 12.748-21.128 16.548l-.147-.223c-1.918 1.149-3.986 2.223-6.145 3.245a.379.379 0 0 1-.361.367.776.776 0 0 1-.282-.065c-7.024 3.267-14.917 6.022-21.594 9.08-9.794 5.99-32.549 22.745-61.783 41.875l13.079-14.705c6.471-7.434 12.878-14.975 12.356-15.579a9.086 9.086 0 0 1-1.386.12c-6.752 0 4.117-11.142 8.463-16.154a105.431 105.431 0 0 1 10.547-10.619c3.415-2.965 6.761-5.658 10.254-8.855a174.964 174.964 0 0 0 12.806-13.305c4.065-4.592 8.008-9.253 11.909-13.915s7.8-9.277 11.83-13.7a148.72 148.72 0 0 1 12.778-12.332 556.26 556.26 0 0 1 10.338-8.582 12.327 12.327 0 0 1-1.765.235c-.982 0-2.111-.385-3.749-2.046a26.712 26.712 0 0 1 5.111-.709c.891 0 1.206.181.072.71-.288.092.456 1.09.619 1.577q1.2-.973 2.409-1.94c-.135-.465 0-.754.331-.754a.719.719 0 0 1 .11.009l-.117-.1a2.672 2.672 0 0 0 .545.148c2.184-1.751 4.42-3.45 6.629-5.179a6.48 6.48 0 0 0-.672.03 1.361 1.361 0 0 1 1.248-2.076 2.357 2.357 0 0 1 1.4.5c1.143-.889 2.274-1.788 3.421-2.672a4.193 4.193 0 0 1-2.312-1.625 7.612 7.612 0 0 0 2.483-1.41 2.517 2.517 0 0 0-.771-.948.109.109 0 0 0-.094.1c-1.864 1.44-4 1.873-5.51 2.8a5.513 5.513 0 0 0 .639 1.7 2.6 2.6 0 0 0-1.5-.9c-.607 0-.773.8-1.4 1.1a99.7 99.7 0 0 0-11.381 6.261 121.915 121.915 0 0 0-5.2 3.476 79.654 79.654 0 0 0-4.456 3.566l-.529-.068a10.036 10.036 0 0 1-1.374.757 5.418 5.418 0 0 1-3.971 1.9c-.157.025.066.373.272.707a4.635 4.635 0 0 0 2.37.791 4.215 4.215 0 0 0 2.931-1.628c.817-.815 1.6-1.628 2.7-1.628a2.452 2.452 0 0 1 .366.028c-.178.267-.8.161-.026 1.241.3-2.078 1.258-4.687 3.61-4.687a6.55 6.55 0 0 1 3.739 1.6c-10.707 4.093-18.72 17.213-29.381 21.981.232-.648 1.046-3.246 1.783-3.247.278 0 .545.369.765 1.349.193-8.306 9.673-6.377 9.742-14.456a2.448 2.448 0 0 1-.887.714c-1.278.5-1.8 2.168-2.9 3-4.028 2.951-7.888 6.634-12.122 8.812-.095 2.017-2.888 1.762-4.515 1.956-.344.3 1.148 1.918.56 2.039-2.649.763-4.517 2.911-7.622 4.087a5.493 5.493 0 0 1 5.416-4.869c.2 0 .394.01.6.03.018-.437-.991-1.616-.69-1.853a2.306 2.306 0 0 0 .833.771c.264 0-.387-1.356-.2-1.545 4.112-1.3 6.778-3.827 9.135-6.3a2.314 2.314 0 0 0-1.5-.9 1.471 1.471 0 0 0-.725.249 1.475 1.475 0 0 1-.729.249h-.081c.414 1.393-.02 1.74-.745 1.74a6.835 6.835 0 0 1-1.226-.171 6.967 6.967 0 0 0-1.248-.171.933.933 0 0 0-1.011 1.257 2.6 2.6 0 0 0-1.421-.542 2.131 2.131 0 0 0-1.173.451 2.185 2.185 0 0 1-1.212.451 2.656 2.656 0 0 1-1.3-.418c-.3.152.394 1.015.107 1.175a3.5 3.5 0 0 0-1.2-.234c-1.842 0-2.9 1.835-3.154 4.135a1.387 1.387 0 0 0 .528.114 1.522 1.522 0 0 0 .676-.19 1.412 1.412 0 0 1 .611-.189 1.682 1.682 0 0 1 1.138.688H88.6c-.8 0-1.279.921-2.327.969-1.24-1.317-.232-1.082-1.472-2.4-1.354 2.876-5.118 2.88-6.42 5.765-.2.44.237 1.576-.006 1.984-.472.784-2.105.445-2.723 1.26a9.812 9.812 0 0 0-1.968 3.243 9.66 9.66 0 0 0-2.536-.951c.809.829 1.072.819.836 1.225a3.8 3.8 0 0 0-1.209-.355c-.489 0-.576.436-.343 1.607a1.01 1.01 0 0 0 .643.425.58.58 0 0 0 .121-.016.561.561 0 0 1 .119-.015 1.311 1.311 0 0 1 .812.607.638.638 0 0 1-.655.661 6.622 6.622 0 0 1-2.695-1.323c-1.481-3.122.749-2.375 1.384-3.553 1.143-2.121 1.8-5.541 3.958-6.237-.56-4.31 5.114-1.212 3.937-6.193a.519.519 0 0 1 .219-.042 2.512 2.512 0 0 1 .727.173 2.554 2.554 0 0 0 .726.173.522.522 0 0 0 .069 0c-.881-1.519-.929-1.643-.926-2.622 1.1 1.038.559 1.693 1.276 2a1.013 1.013 0 0 0 .377.126c.542 0-1.277-1.991-.993-2.393a32.093 32.093 0 0 0 3.744-3.938c1.72-1.991 6.858-1.463 6.389-4.641a112 112 0 0 1 8.958-7.066 2.936 2.936 0 0 1 3.093-3.053 2.976 2.976 0 0 1 .925.141c2.849-2.057 5.7-4.133 8.306-6.23 1.361-1.1 1.382-3.287 3.04-4.315 5.977-3.632 12.673-8.047 19.651-11.774a4.617 4.617 0 0 1 2.536-2.442c-2.025.344-3.19 1.893-5.269 1.893a4.4 4.4 0 0 1-.661-.051c-3.438 3.538-9.011 4.969-12.906 8.566-1.165 1.049-2.839 2.709-4.217 3.16-.733.239-.808.713-1.478 1.131-.28.169-.552.355-.83.528-.324 3.031-3.431 4.321-4.968 6.482l-1.815-1.716.212-.421c-2.146 1.477-4.245 2.933-6.276 4.232-.67.43-2.1.671-2.32 1.3-.106.311.537 1.3.349 1.474-.465.447-1.582.159-2.078.6a63.314 63.314 0 0 1-5.054 4.351 22.03 22.03 0 0 0-4.98 5.641.2.2 0 0 1-.176.071 1.938 1.938 0 0 1-.456-.094 1.973 1.973 0 0 0-.463-.093.243.243 0 0 0-.167.05c-.347.317-.115 1.369-.451 1.628-8.185 6.328-16.3 14.142-25.779 20.427-.825.038.823 1.291 0 1.327a20.749 20.749 0 0 1-3.274-1.1c1.215-4.078 6.819-2.982 6.171-8.467a5.672 5.672 0 0 0 .759.053c4.638 0 4.465-6.528 8.435-6.815a1.067 1.067 0 0 1 .4-.552l-.556-.374c-10.38 6.837-18.109 17.985-33.5 20.359-1.552-1.053 2.833-3.349 1.981-4.825.6-2.87 2.969-4.909 5.2-6.16a20.411 20.411 0 0 1 2.941-1.385 12.48 12.48 0 0 1 1.25-.411c3.434-6.932 6.763-6.23 9.667-13.968a92.042 92.042 0 0 0 4.466-1.877 1.133 1.133 0 0 1 .241-.97 2.66 2.66 0 0 1 .675.551c.263-.122.531-.239.792-.363a7.714 7.714 0 0 1 .157-1.032c-.2-.063-.372-.1-.582-.175a3.676 3.676 0 0 1-.564.042c-3.8 0-10.229-5.1-10.229-5.1 7.776-2.7 9.85-9.8 11.926-18.165 2.31-1.164 5.581-2.406 6.231-5 3.694-2.883 6.031-7.212 8.624-11.348M226.8 40.011c.266 0 .7.456 1.474 1.766 1.759 1.345-1.008 2.937-1.576 3.254-2.649 1.55-6.593 2.6-10.564 3.832-3.838 1.267-7.69 2.722-10.342 4.924v-4.058a24.1 24.1 0 0 1 6.923-4.522 38.588 38.588 0 0 1 13.087-2.869c.618-.392.45-2.327 1-2.327m88.638-18.189c.72 1.381 1.066 3.2 1.658 4.716-1.574-1.843-1.184-3.032-1.658-4.716m1.651-.737a3.079 3.079 0 0 1 1.072 1.3 2.6 2.6 0 0 1-.307.717c-.092 0 .109-1.379-.919-1.512-.014-.355.044-.5.154-.5m83.172 117.339a6.882 6.882 0 0 0 3.764-2.441l-.591.279a68.847 68.847 0 0 0-3.173 2.162m-79.341-59.938a67.668 67.668 0 0 0 11.6-13.994c2.271-3.45 6.918-4.611 10.482-7.647a35.485 35.485 0 0 0 3.091-3.052 8.617 8.617 0 0 1-3.52.845 6.869 6.869 0 0 1-1.613-.2 21.832 21.832 0 0 1-10.753 8.741c-.338.136-.707.231-1.053.355a.388.388 0 0 1-.327.3.466.466 0 0 1-.257-.1 37.063 37.063 0 0 1-4.642 1.248 5.523 5.523 0 0 0-.033.793 3.215 3.215 0 0 1-.612-.646c-.682.126-1.4.211-2.107.312.25 1.618-1.292 1.671.321 3.526 1.126-.793 1.767-2.866 3.021-2.866.59 0 1.316.46 2.294 1.732-2.057 1.422-3.8 4.171-5.611 6.434-1.6 2.084-3.255 3.782-5.275 3.782a3.712 3.712 0 0 1-.695-.066 1.291 1.291 0 0 0-.626-1.281 4.49 4.49 0 0 0-.371-.015 7.366 7.366 0 0 0-1.313.126 23.294 23.294 0 0 0 .61 2.355l.247.408-.019.308c.077.224.124.425.21.656l-.238-.215a2.564 2.564 0 0 1-1.471 1.81 3.754 3.754 0 0 1 1.6 1.142l2.561-1.2c.687-.5 1.332-1.044 2-1.563a11.727 11.727 0 0 1 2.666-2.5l-.161.473m91.285-68.06v167.223H205.794V60.175q1.011-.591 2.02-1.185c5.445-3.183 11.282-5.633 16.535-8.41 3.789-2.049 7.016-5.112 10.49-7.575 3.1-2.175 6.443-3.785 10.471-3.785.5 0 1.01.024 1.532.076 1.184-.162 2.085-1.865 3.3-1.865.6 0 1.274.41 2.1 1.615.285 4.632-8.3 3.954-7.768 9.374l.538.176-.234-.565c.172.011.34.017.5.017a9.493 9.493 0 0 0 4.331-1.214 6.335 6.335 0 0 1 3.6-1.708c.064 0 .129 0 .194.007l.093.115a6.927 6.927 0 0 1 1.422-.149 8.072 8.072 0 0 1 2.858.559 6.192 6.192 0 0 1 2.356-3.963c1.819.927 2.44.856 3.823 2 .433-.281.867-.548 1.3-.82-.081-.3-.162-.577-.218-.794.989-1.115 1.2-3.637 2.582-3.637a3.1 3.1 0 0 1 1.86 1l-.946-1.933a11.063 11.063 0 0 0 3.683 1.361c.627-.334 1.254-.667 1.882-.994a2.731 2.731 0 0 0 .215-.769l.441.428c.641-.333 1.281-.666 1.922-.993a9.439 9.439 0 0 1 3.171-1.585c3.6-1.726 7.243-3.39 10.907-5.253 4-2.036 8.048-4.286 12.252-6.857 1.378 1.75 2.606 2.307 3.763 2.307a4.1 4.1 0 0 0 .821-.087v-.01a1 1 0 0 1 .843-.59 1.08 1.08 0 0 1 .533.161c.236-.1.471-.206.706-.313l-.087-.1.581-.121a6.434 6.434 0 0 1 2.609-.731 4.426 4.426 0 0 1 3.369 1.879 7.449 7.449 0 0 1 .957 3.267 2.133 2.133 0 0 1 .446.445l-.444-.43a11.884 11.884 0 0 1-.055 1.968l.282.542-.322-.217q-.072.586-.162 1.183l.1.211-.134.011a13.712 13.712 0 0 0 .544 7.921 2.916 2.916 0 0 0 1.716.742c2.372 0 2.757-5.412 3.87-7.826a14.4 14.4 0 0 1 .793 8.938c1.532.018 3.17.678 5.021 2.489-2.37 3.067-8.756 6.079-10.681 9.479a4.214 4.214 0 0 0 .75.067c2.978 0 5.368-3.122 8.7-4.134.865 1.968-.207 1.961 1.087 4.358 2.764-1.134 5.592-2.18 8.389-3.254 8.6-3.265 16.8-6.921 21.972-14.293 3.856-1.515 7.663-2.779 11.421-4.074 4.659-4.921 9.43-10.588 15.624-14.028 3.835-2.114 8.628-2.636 13.269-3.153a16.631 16.631 0 0 1 2.2-1.48c3.23-1.758 7.345-2.093 10.712-3.549M34.755 521.34a2.3 2.3 0 0 1 1.662.96 1.817 1.817 0 0 0-.229-.02 3.885 3.885 0 0 0-2.588 1.44c-.726.72-1.362 1.43-2.04 1.43a1.7 1.7 0 0 1-1.316-.96 1.1 1.1 0 0 0 .179.02 3.451 3.451 0 0 0 2.163-1.44 3.439 3.439 0 0 1 2.169-1.43m154.886-.61a.036.036 0 0 1 .009.02.036.036 0 0 0-.009-.02m-2.349-2.04c.644 0 1.373.41 2.349 2.04a.693.693 0 0 0-.488-.44 1.232 1.232 0 0 0-.648.66 1.191 1.191 0 0 1-.9.67c-.532 0-1.292-.59-2.482-2.54a1.527 1.527 0 0 0 .3.03 2.772 2.772 0 0 0 .937-.21 3.027 3.027 0 0 1 .938-.21m3.5-.75c.474 0 1.148.59 2.343 2.71a1.337 1.337 0 0 0-.528-.11 2.462 2.462 0 0 0-.609.1 3.032 3.032 0 0 1-.61.09c-.578 0-1.273-.34-2.4-1.95a.716.716 0 0 0 .328.08 1.1 1.1 0 0 0 .738-.46 1.1 1.1 0 0 1 .734-.46m5.591-1.174c1.173 0 3 .294 3.776 1.694a3.528 3.528 0 0 1-3.319 2.89 4.864 4.864 0 0 1-3.521-1.94 2.478 2.478 0 0 1 2.257-2.591 5.526 5.526 0 0 1 .807-.053m-145.266-4.513h.128a3.781 3.781 0 0 1-3.668 2.481 4.539 4.539 0 0 1-1.658-.316c1.752-.822 3.5-2.168 5.2-2.168m-12.988-.224c-3.328 1.812-3.813 5.191-6.367 5.191a3.58 3.58 0 0 1-.879-.11c2.4-2.661 4.785-4.842 7.246-5.081m31.233-.978c-1.934 1.994-5.754 7.729-9.325 7.729a3.235 3.235 0 0 1-1.281-.27c4.71-2.527 6.657-6.235 10.606-7.459m-40.9-1.115c2.378 1.216-1.541 4.692-2.958 4.692a.517.517 0 0 1-.322-.093c2.37-1.5 1.252-3.1 3.28-4.6m110.791-12.03l.359.262-.241.113-.118-.375m-2.049-.161l.144.419-.419-.282.275-.137m-31.7-15.9c.072 0 .141 0 .209.006-2.852 1.062-5.5 6.645-8.421 6.645a2.316 2.316 0 0 1-.938-.2c1.532-3.891 6.662-6.451 9.15-6.451m69.631-2.794l.208 1.042-.149.042.031-.127-.09-.957m-82.338-5.526c-8.588 8.63-19.305 13.167-21.719 22.183a.282.282 0 0 0 .083.011 3.963 3.963 0 0 0 1.5-1.073 3.62 3.62 0 0 1 2.19-1.074 1.841 1.841 0 0 1 .694.136c.763-1.477 2.355-2.837 3.909-2.838a2.538 2.538 0 0 1 1.638.6c-3.529 6.58-19.672 13.013-24.951 18.007-2-.92-4.053-.314-6-2.6a1.471 1.471 0 0 1 1.78-1.413c.2 0 .418.009.634.02s.439.019.66.019a2.715 2.715 0 0 0 1.776-.491c2.954-1.926 6.979-4.433 11.1-6.669a4.306 4.306 0 0 0-.068-.937c-2.247.135-4.467 1.478-6.687 3.4l-1.756-1.794c12.834-7.069 22.007-22.622 35.211-25.49m321.984-32.875c2.16 5.406.168 7.094-2.57 7.666v-3.689l3.233-.122c-1.582-.937-.457-2.363-.663-3.85m37.911-2.694a2.864 2.864 0 0 1 2.387 1.439c-4.823.072-9.009 6.324-13.274 8.85a12.669 12.669 0 0 1-6.423 1.308c-.849 0-1.71-.03-2.569-.061s-1.716-.061-2.556-.061a11.706 11.706 0 0 0-6.339 1.366c-1.6.77-.215 3.447-1.244 4.593q-5.3 1.615-10.463 3.3v-5.2c10.635-5.247 22.275-12.286 35.306-12.287.253 0 .5 0 .758.008.672-1.279 2.555-3.253 4.417-3.253m7.667-3.557a2.546 2.546 0 0 1 2.1 1.58 1.226 1.226 0 0 1-1.352 1.179 3.039 3.039 0 0 1-2.25-1.173 1.525 1.525 0 0 1 1.5-1.586m11.708-5.583a2.883 2.883 0 0 1 1.7.579c-1.394.332-2.945 3.974-5.465 3.974a3.449 3.449 0 0 1-2.01-.738c1.247-.61 3.372-3.815 5.778-3.815m-455.737-.655a1.571 1.571 0 0 1 1.04.542h-.074a2.117 2.117 0 0 0-1.542.952 2.036 2.036 0 0 1-1.186.95 1.181 1.181 0 0 1-.844-.551h.07a1.877 1.877 0 0 0 1.266-.946 1.876 1.876 0 0 1 1.27-.947m461.3-2.785a1.514 1.514 0 0 1 .653.155c.169 2.709-.738 5.436-2.439 5.436a2.72 2.72 0 0 1-1.729-.8c.682-1.486 1.8-4.787 3.515-4.787m-451.9-3.26h.019a2.169 2.169 0 0 1-2.192 1.622 2.809 2.809 0 0 1-.915-.155c1.03-.568 2.03-1.467 3.088-1.467m467.261-4.278c1.253 0 2.567.708 4 2.647-2.638 1.669-5.258 3.49-7.9 3.49a5.541 5.541 0 0 1-2.963-.863c-.2 1.662-1.037 2.394-1.95 2.394-1.078 0-2.267-1.022-2.663-2.742a3.978 3.978 0 0 0 1.455.28c1.839 0 3.494-1.3 5.114-2.6s3.205-2.6 4.9-2.6m17.353-8.41a6.332 6.332 0 0 1 1.621.2c-.056 0-.113-.008-.168-.008-1.651 0-2.775 1.97-3.79 3.94s-1.921 3.939-3.132 3.939c-.8 0-1.731-.856-2.915-3.132a9.967 9.967 0 0 1 8.384-4.938m7.318-3.737a2.127 2.127 0 0 1 1.339.527c-.555 1.117-1.213 3.033-2.108 3.033a1.26 1.26 0 0 1-.937-.678c.562-.679-.694-1.12-.275-1.809a1.035 1.035 0 0 0 .471.657.235.235 0 0 0 .18-.141 1.366 1.366 0 0 1 1.33-1.589M149.4 392.1l.388.011-.045.229-.107.385c-.072-.188-.153-.4-.236-.625m19.148-20.508c-1.826 9.68-8.689 20.538-18.093 20.538q-.331 0-.667-.019 1.131-5.922 2.143-12.05l1.584 2.04c4.921-3.268 9.741-6.677 15.033-10.509m389.24-5.842a.729.729 0 0 1 .725.392c-1.47.238-1 2.135-2.272 2.52a1.867 1.867 0 0 1 1.547-2.912m-3.4-5.2a1.626 1.626 0 0 1 1.168.78 5.917 5.917 0 0 1-3.28 1.535 2.324 2.324 0 0 1-1.277-.381c1.688-.064 2.387-1.934 3.389-1.934m-13.835-4.006c1.056 1.706 2.281 2.12 3.175 4.981-.106.538-.283.732-.5.732a2.245 2.245 0 0 1-1.058-.685 2.188 2.188 0 0 0-1.175-.686.54.54 0 0 0-.194.034 44.962 44.962 0 0 1-6.06.664c-.29.016-.583.019-.875.029a5.653 5.653 0 0 0-.043.84 3.444 3.444 0 0 0 2 .636 5.139 5.139 0 0 0 2.123-.525l.841 2.347c-6.675.225-12.313 6.8-18.592 6.8a8.8 8.8 0 0 1-3.718-.827c5.647-3.488 12.172-2.52 14.312-9.246a.259.259 0 0 0-.213-.1 1.858 1.858 0 0 0-.645.241 1.99 1.99 0 0 1-.832.241 1.251 1.251 0 0 1-1.042-.666 1.921 1.921 0 0 1-1.562 1.029 2.158 2.158 0 0 1-1.815-1.594c1.288-2.04 4.4-2.638 7.6-2.977 3.212-.32 6.543-.284 8.273-1.27m13.152-.706h1.143a1.229 1.229 0 0 1-.63.233.722.722 0 0 1-.513-.233m-9.778 0h1.925a4.353 4.353 0 0 1 .971 1.066c-.1-.006-.19-.008-.286-.008-.2 0-.4.01-.608.021s-.405.021-.605.021a2.444 2.444 0 0 1-1.726-.565 2.137 2.137 0 0 1 .329-.535m-30.365 0h1.223a2.1 2.1 0 0 1 .778.753 3.593 3.593 0 0 1-3.41 2.147 4.027 4.027 0 0 1-2.579-.874 1.28 1.28 0 0 0 .281.031 4.231 4.231 0 0 0 2.178-1.1 7.2 7.2 0 0 1 1.529-.961m-77.247 52.45l.159-.026v-.047l-.158.073m23.316-11.325l-.079-.225-.087.051.166.174m4.562-2.576a4.868 4.868 0 0 1-.1-.631c-.215.156-.444.305-.663.459a1.813 1.813 0 0 1 .766.172m17.128-7.062a6.367 6.367 0 0 0-.388-1.817 3.035 3.035 0 0 1-.645 1.179l-.493.411c.5.052 1.009.123 1.526.227m3.165-4.034a.251.251 0 0 0 .207-.131c-.242-.121-.479-.261-.72-.395l.042.136.113.167h-.012a.572.572 0 0 0 .37.228m-2.186-.033a.773.773 0 0 0 .544-.621h-.01a1.408 1.408 0 0 0-1.264 1.018c.054 0 .11-.007.167-.007a1.953 1.953 0 0 1 .432.049l-.093-.5a.533.533 0 0 0 .224.056m13.79-.083a11.465 11.465 0 0 0-1.141-3.427c-.261.272-.52.549-.777.827a5.237 5.237 0 0 1 1.918 2.6M483.9 378.16a6.707 6.707 0 0 1-2.744-.579 1.631 1.631 0 0 0 .431 1.527 20.381 20.381 0 0 0 2.708-.958c-.131.007-.262.01-.395.01m-71.691-22.318h79.164c-4.186 2.959-10.189 3.055-13.317 7.941a14 14 0 0 1-.812 5.908 6.652 6.652 0 0 1 .773-.044q.31 0 .625.027c3.206-5.662 8.419-7.874 16.232-8.078a12.976 12.976 0 0 1 1.019 2.351c1.879-2.965 5.936-2.942 8.755-4.434l.923 2.324c-2.338 1.777-4.636 2.93-6.892 2.93a6.462 6.462 0 0 1-2.736-.608c.2.876-.1 1.142-.609 1.142a5.873 5.873 0 0 1-1.459-.318 5.91 5.91 0 0 0-1.5-.318c-.557 0-.907.278-.759 1.2a6.418 6.418 0 0 1 1.306.377 2.225 2.225 0 0 1-.014.9.685.685 0 0 1 .179-.023 1.243 1.243 0 0 1 .66.233q3.738-.957 7.526-1.787c-.228-.468-.39-.863-.19-.863a.753.753 0 0 1 .334.147c.153.208.272.4.4.6 4.664-1.018 9.373-1.9 14.131-2.549a.85.85 0 0 0 .284.06c.4 0 .385-.509.368-1.019s-.034-1.019.369-1.019a.821.821 0 0 1 .283.061c.669.559 1.341 1.083 2.008 1.648a2.522 2.522 0 0 1 2.109-1 3.847 3.847 0 0 1 1.811.475c.057 1.8-.665 2.484-1.582 2.484a2.056 2.056 0 0 1-.362-.033l.255.276a9.784 9.784 0 0 1-4.156 2.034 6.023 6.023 0 0 1-3.694 1.6 3.245 3.245 0 0 1-2.185-.825 10.956 10.956 0 0 0-4.855 1.665 6.273 6.273 0 0 1 1.642 1.619c-1.644.615-2.525 1.918-3.625 1.918a1.633 1.633 0 0 1-.8-.229c-.1.2-.213.366-.31.58a8.445 8.445 0 0 0-4.045-1.066 12.168 12.168 0 0 0-5.633 1.678 12.971 12.971 0 0 1 3.879-.668 8.734 8.734 0 0 1 5.911 2.3c1.212-.472 2.444-1.328 3.639-1.328.854 0 1.688.437 2.483 1.763a4.654 4.654 0 0 1-3.56 1.384 19.149 19.149 0 0 1-2.544-.24 19.848 19.848 0 0 0-2.692-.24 7.9 7.9 0 0 0-2.181.283 8.441 8.441 0 0 0-3.457 2.342c2.734-.081 5.415-.874 8.179-.874a10.826 10.826 0 0 1 5.368 1.325 3.639 3.639 0 0 0-.7-1.688 2.213 2.213 0 0 0 1.342.546 2.8 2.8 0 0 0 1.814-1.027 2.741 2.741 0 0 1 1.689-1.029c.662 0 1.45.568 2.522 2.3l1.436 2.545c.232-1.222-.379-3.112-.23-4.169.992 1.649 2.291-.131 3.277 2.2a6.791 6.791 0 0 0-.758-2.2.491.491 0 0 1 .352-.137 3.65 3.65 0 0 1 1.68.977 3.688 3.688 0 0 0 1.655.975.467.467 0 0 0 .41-.23l-.607-1a3.984 3.984 0 0 1-2.136-1.035c1.228-1.059 2.1-3.058 3.351-3.059a1.808 1.808 0 0 1 1.208.586c2.54-3.025 5.569-5.33 8.774-5.33a7.631 7.631 0 0 1 4.867 1.9.677.677 0 0 0 .287.082c.453 0 .3-.9.1-1.8s-.461-1.8-.226-1.8a.14.14 0 0 1 .038.007 5.591 5.591 0 0 0 3.126 1 10.268 10.268 0 0 0 3.851-1.02 10.208 10.208 0 0 1 3.8-1.021 5.5 5.5 0 0 1 3.476 1.323 2.578 2.578 0 0 1 1.406-.884.828.828 0 0 1 .689.461 12.635 12.635 0 0 1-1.137 1.29l.446.436c3.814 1.274 7.01 9.771 7.01 9.771a17.483 17.483 0 0 0-2.826-.234c-7.241 0-12.717 4.742-18.428 10.432h-.178c-.3 0-.609 0-.926-.007s-.654-.007-.989-.007c-2.346 0-4.883.174-6.387 1.745-10.279 1.9-18.084 11.824-28.944 12.36a3.42 3.42 0 0 0-1.573-3l.175.979-1.47-1.849c-.821.04.375 2.626 1.119 2.766-3.976 1.362-7.79 1.84-11.414 3.882-.47-1.082-.865-1.316-1.236-1.316a1.738 1.738 0 0 0-.417.068 1.7 1.7 0 0 1-.414.069c-.377 0-.771-.254-1.238-1.456a2.48 2.48 0 0 0 .579 1.373 12.026 12.026 0 0 0-1.992-.28c-1.406 0-1.731.938-2.486 4.568a71.054 71.054 0 0 1-14.644 7.56c-5.006 2.008-10.078 3.792-14.807 6.606a157.314 157.314 0 0 1-15.666 5.037c-3.332 1.025-6.684 2.061-10.026 3.211a98.9 98.9 0 0 0-12.957 6.211c.4 1.888-.372 3.049-.267 4.743a1.579 1.579 0 0 1-.949.223 10.31 10.31 0 0 1-1.1-.083v-86.583M126.156 483.6l-.28-.638-1.792-.161.278.643 1.794.156m7.789-3.06l.132-.355-.435-.464.3.819m-16.007-8.183a2.26 2.26 0 0 0 .925-.283l-.3-.178-.622.461m-3.87-.732c.273-.271.545-.54.818-.8a7.383 7.383 0 0 1-2.132-.689c-.419.281-.843.554-1.262.834a16.988 16.988 0 0 1 2.576.656m57.345-1.882l1.31-1.337-1.912.478.6.859m10.768 6.85c2.115-1.688 4.137-3.493 6.1-5.36a9.324 9.324 0 0 0-1.23-3.189 29.707 29.707 0 0 1-2.785 1.981c-.437.416-.9.812-1.331 1.248l-.273-.363a12.188 12.188 0 0 1-5.4 1.317 11.745 11.745 0 0 1-2.07-.187 3.88 3.88 0 0 0-1.035 3.139 9.038 9.038 0 0 0-3.1-.647c-2.828 0-4.162 2.1-4.594 5.19a6.735 6.735 0 0 1-2.308 4.277c-2.514 2.428-4.97 5-7.386 7.69h.076a2.523 2.523 0 0 0 1.007-.305 2.527 2.527 0 0 1 1.009-.3 1.633 1.633 0 0 1 1.343 1.027.959.959 0 0 1 .259.791c.889-.817 1.724-1.566 2.374-2.182a54.198 54.198 0 0 1 2.666-2.379 19.737 19.737 0 0 1-3.271.29c-.359 0-.719-.011-1.08-.036 1.557-3.251 4.958-5.3 8.422-5.989a10.992 10.992 0 0 1-.685-1.156.39.39 0 0 0 .18.051.585.585 0 0 0 .408-.326.584.584 0 0 1 .408-.325 1.613 1.613 0 0 1 .946.937 2.309 2.309 0 0 1 .1.619l.572-.03c.668-1.488 2.187-1.844 3.692-2.241l-.434 1.669c1.432-.914 2.87-1.852 4.336-2.885a4.27 4.27 0 0 0-1.68-1.824c2-1.752 3.9-5.261 5.986-5.261a2.325 2.325 0 0 1 1.617.754c-1.212 1.479-2.446 2.818-3.737 2.818h-.031a5.363 5.363 0 0 1 .934 1.19m-59.144-13.066l.145-.3-.112-.127-.28.2.247.23m69.692 3.3q1.629-1.679 3.227-3.385a5.705 5.705 0 0 1-2.166-.914c-1.1.791-2.2 1.712-3.328 2.682l.328-.076a4.006 4.006 0 0 0 1.939 1.693m-.006-10.064l.334-.28a15.832 15.832 0 0 1 2.425-2.058l3.277-2.79-.026-.359c-2.877 1.588-6.258 2.579-9.2 3.892.236.363.521.838.881 1.486a.253.253 0 0 0-.129-.042.431.431 0 0 0-.29.3.432.432 0 0 1-.291.3 1.516 1.516 0 0 1-.79-.9c-.049-.227-.114-.514-.17-.8-.552.264-1.171.525-1.786.8l-.718.713c-.91.888-1.814 1.782-2.719 2.671a2.505 2.505 0 0 1-1.036 1.531.847.847 0 0 1-.367.069 2.086 2.086 0 0 1-.231-.014 58.667 58.667 0 0 1-5.305 4.6 57.297 57.297 0 0 1-2.946 2.1c2.438-.72 4.849-1.542 7.25-2.406.519-.191 1.083-.333 1.637-.485 3.339-2.592 6.657-5.324 9.975-8.121l.13-.323.1.13m-21.366-3.3a.254.254 0 0 0 .049 0c.846-.165.931-1.185 1.7-1.436-1.58-1.582-.759-2-.929-2.62a4.9 4.9 0 0 0-1.167.193c-.263.629-.518 1.23-1.108 1.23a2.083 2.083 0 0 1-1.141-.5 4.139 4.139 0 0 1-1.073.154 3.288 3.288 0 0 1-2.006-.7c-.943.726-1.894 1.437-2.828 2.185-3.465 2.758-6.841 5.787-10.66 8.5 1.5.342 2.32.695 2.75.695a.4.4 0 0 0 .241-.063 37.721 37.721 0 0 1 10.754-4.706c1.229-.374 2.471-.748 3.707-1.136-.584-1.483-1.654-.693-2.085-2.092.017-.236.094-.331.212-.331.483 0 1.668 1.572 2.412 1.648l-.214-1.584a.06.06 0 0 1 .024 0 2.711 2.711 0 0 1 .621.284 2.118 2.118 0 0 0 .737.284m-51.787-3.3a12.677 12.677 0 0 0 4.308-1.328 43.16 43.16 0 0 0 2.124-2.536c-2.17 1.17-4.3 2.518-6.432 3.864m7.775-6.114a4.05 4.05 0 0 1-3-1.3 6.121 6.121 0 0 0 2.2 2.859q.592-.783 1.176-1.573c-.125.01-.249.014-.373.014m15.609-10.643c.405-.061.8-.1 1.2-.139l-.127-.2a1.354 1.354 0 0 0-.4-.068.759.759 0 0 0-.68.4m-100.557.682l3.225-.014-.929-1.3-3.231.007.935 1.306m103.3-.955c.4-.02.788-.023 1.174-.023a11.96 11.96 0 0 1 5.176-3.05 4.5 4.5 0 0 1-.648-1.7.818.818 0 0 0-.412-.12c-.91 0-1.645 1.761-3.957 2.524l.187.481c-1.013.175-1.085 1.188-1.52 1.891m10.357-4.56a11.654 11.654 0 0 0 1.16-.6 2 2 0 0 0 .623-.808 13.109 13.109 0 0 0-1.783 1.408m-42.647-2.19a7.453 7.453 0 0 1-1.842-.39 7.593 7.593 0 0 0-1.968-.389 1.44 1.44 0 0 0-1.335.657c-3.292 5.322-10.948 6.522-13.786 12.412l-.04.062a91.67 91.67 0 0 1 16.673-12.4c-.17 1.362 1.286 2.05 2.418 2.05a2.43 2.43 0 0 0 .463-.042l-.377-.949.116.037a18.092 18.092 0 0 1-.221-1.049h-.1m37.956 1.8a4.5 4.5 0 0 0-.578-1.581c2.967-5.228 7.778.295 7.744-5.575a57.012 57.012 0 0 1-10.341 4.969c.4 1.928 1.143 2.222 1.9 2.222.167 0 .334-.014.5-.028s.326-.029.482-.029a1.781 1.781 0 0 1 .3.022m6.883-1.889a4.264 4.264 0 0 1 1.253-1.844 38.07 38.07 0 0 0 3.273-2.491 3.015 3.015 0 0 1-1.955-1.123 19.521 19.521 0 0 0 6.292-5.573c-2.731 2-5.521 3.928-8.428 5.675 2.137 1.827-2.132 3.535-.435 5.356m26.029-5.363c2.916-2.533 5.868-5.08 9.248-5.706a8.618 8.618 0 0 0-.361-1.95 4.129 4.129 0 0 1-1.049 1.156 714.944 714.944 0 0 0-5.36 3.628c-.8.954-1.623 1.9-2.478 2.872m15.892-8.063a6.782 6.782 0 0 1-.48-1.147c-.562.057-1.179.127-1.991.215a86.598 86.598 0 0 1-.111 1.612 1.458 1.458 0 0 0 .743.292.756.756 0 0 0 .623-.613.749.749 0 0 1 .582-.614 1.231 1.231 0 0 1 .634.255m2.249-.693a1.678 1.678 0 0 0-.455-.952 2.97 2.97 0 0 1-.651.275c.413.246.819.511 1.106.677m-25.957-6.816c1.659-.739 3.514-1.132 5.115-1.865a2.516 2.516 0 0 0-.9-.157c-1.591 0-3.373 1.22-4.412 1.284a3.085 3.085 0 0 1 .2.738m-57.852-1.239l1.7-2.575-.151-.04-3.035.725 1.482 1.89m63-.64a7.393 7.393 0 0 0 1.585-.943 12.084 12.084 0 0 0 1.41-1.382 7.483 7.483 0 0 0-2-.651.938.938 0 0 0-.92.709 3.253 3.253 0 0 0-.076 2.267m4.064-4.878a5.2 5.2 0 0 1-1.779-.325 3.355 3.355 0 0 0 1.589 1.826c.406-.522.8-1.057 1.189-1.6a5.222 5.222 0 0 1-1 .1m-56.844-4.9q1.093-.838 2.192-1.563l-.437-.366c-.574.663-1.174 1.28-1.755 1.929m64.644-1.928c.5-.341 1-.683 1.516-1.01a.916.916 0 0 0-.488-.171c-.352 0-.7.311-1.028 1.181m-166.676.128a.838.838 0 0 0 .071-.655 5.714 5.714 0 0 0-1.029-.82h-.02a.816.816 0 0 0-.08.637 5.7 5.7 0 0 0 1.04.839h.018m1.614-2.987l-.178-.829-.78-.149.958.978m109.152-5.708l.562-.338-.177-.158-.385.5m1.13 28.993c-.08-.744-.455-.667-1.039-1.079 5.459-1.994 5.82-2.125 7.391-8.637 14.624-14.329 31.554-24.534 47.61-36.544l-3.124-3.268a802.793 802.793 0 0 1-10.805 4.273c-7.254 2.863-14.492 5.71-21.488 8.806-1.284 1.94-2.865 3.669-4.781 3.965a7.822 7.822 0 0 1 .072-1.816c-4.155 1.951-8.208 4.009-12.085 6.26a.515.515 0 0 1-.239.054 3.174 3.174 0 0 1-1.615-.93c-.578.319-1.152.637-1.734.957.185.279.38.582.609.969l-6.243 6.8a16.8 16.8 0 0 1 7.512-2.935 6.022 6.022 0 0 1 5.572-4.969 2.471 2.471 0 0 1 2.462 1.5c-5.666 1.252-10.066 7.163-14.6 11.548.57-.2 1.133-.407 1.708-.605 2.673-.922 5.787-1.244 8.892-2.111 3.223 9.238-.343 11.144-2.794 14.48l-4.022-5.047c-1.8 5.645-12.71.349-9.878 12.065a16.046 16.046 0 0 0-6.47-1.784c-3.77 0-5.336 2.777-5.355 7.181 1.06-1.3 2.871-1.705 4.653-2.151l.036 3.346c4.835-3.4 9.591-6.506 14.055-10.558a1.923 1.923 0 0 0 1.347.672 2.814 2.814 0 0 0 1.49-.629 2.781 2.781 0 0 1 1.454-.631 1.9 1.9 0 0 1 1.408.823M24.611 355.842h181.183v47.8q-.456.378-.908.758a1.544 1.544 0 0 0 .218.015 2.959 2.959 0 0 0 .69-.1v3.239a12.034 12.034 0 0 1-2.1 1.683l-.181.314.259.408-.466.368-.153-.208a3.986 3.986 0 0 1-.925.964 1.95 1.95 0 0 0 .639.729h.013a18.7 18.7 0 0 1 2.913-1.576v88.933q-.789.2-1.6.387a.255.255 0 0 1-.214.255.56.56 0 0 1-.306-.14c-5.675 1.218-12.073 1.692-17.434 2.8-7.9 2.94-26.452 12.112-50.485 20.919l3.425-2.97c2.043-1.79 4.765-4.179 7.486-6.566 5.41-4.829 10.7-9.842 10.275-10.567-3.582-.591-3.256-2.663-1.544-5.05l-.521-.279a4.427 4.427 0 0 0 1-.361c.307-.385.642-.774 1-1.166.245-1.133-.62-2.641-.7-4.113-2.188 2.6-6.2 3.058-9.65 3.966a9.764 9.764 0 0 1-2.4.285 19.558 19.558 0 0 1-8.051-2.125c-3.519-1.642-7.04-3.1-11.377-5.181l3.224-1.749a3.489 3.489 0 0 0-2.134-.849 4.441 4.441 0 0 0-1.1.177 4.3 4.3 0 0 1-1.071.177c-.748 0-1.616-.351-2.891-1.754l2.359-1.194c-2.781-.819-4.9-1.49-7.37-2.316a2.754 2.754 0 0 1 2.9-1.795 15.623 15.623 0 0 1 1.874.161 15.98 15.98 0 0 0 1.918.159c.18 0 .358-.007.533-.022l.063-3.6a10.516 10.516 0 0 0-1.78-.377 1.05 1.05 0 0 0-.572.139 3.8 3.8 0 0 1-2.1.614 8.84 8.84 0 0 1-4.473-1.639c-.227.2-.47.386-.686.584l-1.636-1.617c-1.14-.293-2.306-.369-3.666-.749l.113-.468c-4.431 2.926-8.888 5.82-13.4 8.63-2.3.619.492 2.571-1.808 3.188-1.157-.04-2.315-.039-3.47-.084a9.456 9.456 0 0 1-6.224 3.9c-.417-2.139.984-3.593 2.753-4.308l-.452-.083a33.647 33.647 0 0 1 6.4-5.759c2.47-2.963 5.994-5.856 9.03-5.856.1 0 .2 0 .3.01a37.994 37.994 0 0 0 7.61-5.874 4.947 4.947 0 0 1-.537.028 7.394 7.394 0 0 1-2.323-.424c3.155-2.508 4.357-5.173 6.926-5.535.147-.314.31-.6.445-.931a19.364 19.364 0 0 0 2.521-.564c-.635-.006-1.272-.012-1.979-.027l-.469-1.788h-.526c-2.672 2.16-5.3 5.175-8.088 5.175a3.937 3.937 0 0 1-1.89-.493c2.659-3.481 6.213-4.9 10.024-6.519l-.413-1.574a27.763 27.763 0 0 1-8.669 2.977c.09.736.766.872 1.341 1.265-4.846.011-5.317 6.138-9.315 6.138a6.285 6.285 0 0 1-2.777-.778l-2.678-1.552c-.211 1.544 1.039 3.086.945 4.374a1.624 1.624 0 0 0-.763-.185 4.325 4.325 0 0 0-1.77.569 4.365 4.365 0 0 1-1.8.569 1.885 1.885 0 0 1-1.288-.523c.288 1.215 1.058 1.079 1.539 1.753-.608.774-1.822.836-3.077.836h-.72c-1.319 0-2.562.07-3.068.97l1.111.552a8.783 8.783 0 0 1 3.144-.737 3.437 3.437 0 0 1 .491.033c-2.3 2.763-3.476 6.632-6.686 6.632-.111 0-.226 0-.343-.015-5.482 8.152-12.944 15.376-21.6 15.376h-.078c-2.552.5 1.312 3.6.254 3.932-9.492.9-13.74 11.831-23.3 11.917-.946 1.18-1.893 2.317-2.868 2.317a1.258 1.258 0 0 1-.485-.1c.579-.875 1.092-1.66 1.634-2.329-.27-.033-.527-.035-.806-.085a9.116 9.116 0 0 1-2.557.357c-5.593 0-10.716-4.711-10.716-4.711 14.64-5.917 23.752-16.766 33.333-29.324 4.565-2.418 10.777-5.272 13.718-9.226 9.59-6.433 17.576-15.108 26.13-23.237-7.077 4.474-22.03 8.984-26.359 10.61a5.853 5.853 0 0 1-2.061.375c-3.8 0-7.759-3.6-15.376-6.7a214.197 214.197 0 0 0 4.3-4.27 7.517 7.517 0 0 0-3.878-1.428 4.881 4.881 0 0 0-2.167.6 4.76 4.76 0 0 1-2.1.6c-1.263 0-2.985-.7-5.91-3.155l3.26-2.983a637.33 637.33 0 0 1-14.607-3.351c0-4 2.623-4.5 5.695-4.5.516 0 1.045.014 1.576.028s1.066.029 1.591.029a12.959 12.959 0 0 0 2.819-.247l-2.368-7.654c-.567-.017-1.916-.439-3-.439a1.676 1.676 0 0 0-1.326.444 5.183 5.183 0 0 1-4.221 1.833c-2.224 0-5.093-.917-8.749-2.723-4.276-2.115-7.211-1.323-11.665-2.05-1.038-5.12.964-6.461 4.022-6.461a50.047 50.047 0 0 1 7.824 1.233c.9-.861 1.532-1.638 1.475-2.175-3.966-.385-7.3.5-14.926-6.065-1.392-3.852-.26-4.735 1.612-4.735a16.575 16.575 0 0 1 2.642.317 16.68 16.68 0 0 0 2.627.317 4.123 4.123 0 0 0 .715-.056 89.473 89.473 0 0 0 9.218-2.368l-5.165-12.88c-2.808.441-5.577.842-8.945 1.263L.013 371.888c1.856-2.721 1.914-7.416 5.109-7.416.1 0 .2 0 .308.014q1.111.095 2.144.093c8.116 0 12.685-4.231 17.051-8.737m235.707-33.1l.554.79a97.693 97.693 0 0 0-3.564 1.369l-.539-.781a97.55 97.55 0 0 1 3.549-1.378m-3.509-2.038l.39.608-2.053.86-.384-.605 2.047-.863m81.714-61.959l.366.55-.8.621-.29-.4.726-.772m60.884-31.72l.034.156-.063.021-.009-.162.038-.015m8.285-3.828l-.036.185-.106.047.011-.116.131-.116m-192.777 128.6q1.667-.96 3.337-1.91a5.028 5.028 0 0 0-.957-.533c-.863.519-1.749 1.008-2.625 1.507.076.314.16.627.245.936m102.075-7.48a14.942 14.942 0 0 1 2.544-.7c-.034-4.377 3.47-5.729 7.024-6.156 1.155-1.212 6.045-3.041 10.582-4.744-.619-1.752-1.558-1.08-2.205-2.629 1.861-1.246 3.721-2.437 5.58-3.63l-.08-.04c-5.492 2.873-10.957 5.753-16.366 8.69-1.929 3.605-4.959 5.843-7.079 9.21m-62.935-14.868c4.344-2.66 8.574-5.335 12.584-8.053a5.974 5.974 0 0 1 .679-3.146c-1.159-.875-2.318-1.754-3.43-2.5-10.442 7.208-20.7 10.063-29.273 19.755 1.86 2.7 1.729.151 3.743 3.249q1.907-1.053 3.814-2.111l4.162-2.532c.994-.589 1.971-1.179 2.955-1.769a43.815 43.815 0 0 0-2.111-5.032 3.139 3.139 0 0 0 1.759.894 1.451 1.451 0 0 0 1.127-.919 1.512 1.512 0 0 1 1.256-.919 2.485 2.485 0 0 1 1.114.333c.583.96 1.119 1.874 1.621 2.755m14.925-14.256a9.227 9.227 0 0 1 1.1-.392 32.876 32.876 0 0 0-.8-1.787l.4-.386-.514.172.109.214c-.4.373-.776.761-1.181 1.125.32.422.608.76.879 1.054m3.088-.892c2.813-.662 5.736-1.4 4.972-4.122l-6.06 2.019q.556 1.054 1.088 2.1m-4.074-3.712a11.052 11.052 0 0 1 1.392-1.164 16.956 16.956 0 0 0-2.454-3.144l-1.055.872a62.813 62.813 0 0 1 2.117 3.436m18.531-5.7c.032-.585-.133-1.454.138-1.69a46.16 46.16 0 0 1 6.417-4.707l-.025-.154c-3.5 2.274-7.015 4.532-10.511 6.818h-.009c-1.255 1.012-3.9 1.07-2.561 3.6a43.337 43.337 0 0 0 10.775-6.294 16.588 16.588 0 0 0-4.224 2.43m11.568-7.3c.368-.194.764-.351 1.143-.529a3.043 3.043 0 0 0-.6-.083.487.487 0 0 0-.543.612m-1.63.95c.349-.211.7-.423 1.054-.622-.37-.606-.721-1.2-1.064-1.8q-1.226.805-2.454 1.606l.369.009c.539-.31 1.075-.625 1.628-.916a8.203 8.203 0 0 1-.207.749c.224.334.449.654.674.975m-12.751 1.575c4.608 0 6.076-4.715 8.885-7.425a24.3 24.3 0 0 1-7.782 3.2c-3.033 3.421-5.987 6.982-9.084 10.447 1.883-.691 3.764-1.284 5.407-1.843l-.089-.046c.3-1.687.11-4.54.852-4.54a.35.35 0 0 1 .07.008 8.091 8.091 0 0 0 1.741.2m21.219-9.709c.457-.052.913-.1 1.363-.148l-.316-.583c-.349.244-.7.486-1.047.731m2.6-.324c1.569-.286 2.882-.869 3.4-2.563a1.613 1.613 0 0 1-.329-1.174c-1.209.889-2.42 1.775-3.645 2.641.163.337.35.7.574 1.1m59.107-43.183q11.139-6.135 22.221-12.387c1.252-.709 2.518-1.378 3.777-2.07l-.027-.008-.99-4.3c-.342.121-.685.239-1.047.329a1.828 1.828 0 0 0 .878.494 4.246 4.246 0 0 1-1.887.763c.077 2.157-.352 2.468-2.3 2.468-.311 0-.66-.008-1.053-.018a59.916 59.916 0 0 1-9.374 6.315l.04.08a3.272 3.272 0 0 1-.8.348 124.5 124.5 0 0 1-18.961 7.794 96.8 96.8 0 0 1-14.477 9.052c-1.823.953-3.631 1.9-5.413 2.848-.3.892-.617 1.771-.985 2.575a9.93 9.93 0 0 1 1.885-.74.91.91 0 0 1 .466.128 2.015 2.015 0 0 1-1.7 1.45 1.121 1.121 0 0 1-.859-.413 6.2 6.2 0 0 1-.967 1.457 33.739 33.739 0 0 1-1.608 1.584l-.216.319q5.991-3.186 11.947-6.388c.265-1.1.536-2.184.816-3.251l13.63-5.283-.64 1.057q3.678-2.009 7.34-4.035l.025-.4.28.232m31.717-19.309c-.271 0-.579-.272-.979-1.187-.272.114-.571.233-.838.347a3.59 3.59 0 0 0-.708-.129l-.263.081c.392.6.8 1.225 1.269 1.95a10.426 10.426 0 0 1-.107 1.522c1.007-.538 2.008-1.066 3.015-1.6l-.313-1.412.94-.3a2.6 2.6 0 0 1-1.041-.383l.029.539a5.841 5.841 0 0 1-1 .566m4.132-.453c.272-.141.544-.285.815-.427-.655-.993-1.315-2.006-1.751-2.006h-.038l-.059.023-.114.071a2.2 2.2 0 0 1-.384 1.881l1.043-.331.488.786m4.879-2.557c.782-.406 1.552-.812 2.33-1.218q-.452-.684-.874-1.483l-.35.133.237.259-1.027.91.18-.938c-1.045.4-2.095.792-3.1 1.183.112.386.216.766.288 1.124l2.494-1.137a4.523 4.523 0 0 1-.174 1.167m-201.59-46.926h206.413v15.8c-.434.266-.873.523-1.313.778l1.313-.483v26.885q-.965.354-1.915.709c.232.418.471.869.717 1.349q.6-.313 1.2-.629v133.778H295.064c1.574-2.01 3.166-4.06 4.915-6.384a10.146 10.146 0 0 1 2.169-.3 6.4 6.4 0 0 1 2.355.466c.232-.21.48-.416.709-.626.239.023.47.034.7.034a9.266 9.266 0 0 0 1-.059l.573-.384-.2-.068-.249-1.118a.969.969 0 0 1 .381-.064c.262 0 .559.058.843.072l.133.566a19.953 19.953 0 0 1 2.571-1.39 7.835 7.835 0 0 1 2.224-3.188c1.357-1.4 2.633-2.9 3.893-4.429a284.927 284.927 0 0 0-26.861 16.876h-4.85a4.394 4.394 0 0 0-.277-.116l-.207.116h-1.066l.1-.274-.134.009c-.05.088-.1.176-.153.265h-77.84V177.655M73.5 166.553a1.74 1.74 0 0 1 .844.294c-.192.822 1.092.729 1.028 1.5a1.486 1.486 0 0 0-.64-.414c-.082 0-.137.059-.15.206.653 1.408-.22 2.073-1.2 2.073a2.278 2.278 0 0 1-.652-.1c-.014-1.325-.331-3.568.772-3.568m7.165-12.147c.72 0 1.79.533 3.389 1.845-.266 4.205-3.642 7.659-6.7 8.109 3.259-1.1.373-9.953 3.309-9.954m15.561-14.674A3.579 3.579 0 0 1 99 141.5h-.08c-2.494 0-3.713 2.172-4.877 4.345s-2.27 4.345-4.538 4.345a6.711 6.711 0 0 1-3.446-1.237c2.121-3.044 4.168-6.33 7.571-6.33a5.774 5.774 0 0 1 1.121.113c-.554-2 .3-3 1.473-3m503.4-7.124c.939 1.253 1.051 3.27 1.71 4.761-2.4-1.305-1.316-2.992-1.71-4.761m-497.771-.565a3.44 3.44 0 0 1 1.292.3c-.126 1.739.048 5.605-1.98 5.605a1.7 1.7 0 0 1-.209-.013c-1.241-2.713-1.242-5.889.9-5.89m501.2-1.342a2.781 2.781 0 0 1 1.478.96 5.158 5.158 0 0 1-.786 1.059 4.7 4.7 0 0 1 .021-.683.662.662 0 0 0-.755-.682 2.294 2.294 0 0 0-.536.073.676.676 0 0 1 .578-.727m-494.84-3.3a4.07 4.07 0 0 1 1.226.209c-1.046 1.076-1.966 5.485-4.778 5.485a3.136 3.136 0 0 1-.933-.149c1.275-.814 1.369-5.545 4.485-5.545m5.176-5.659a3.3 3.3 0 0 1 1.817.58 1.418 1.418 0 0 1-1.361 1.953 2.969 2.969 0 0 1-1.995-.962c-.271-.989.512-1.571 1.539-1.571m421.032-8.981l.472.2-.252.181-.22-.384m8.757-.76c1.6 0 4.024 1.365 5.486 2.79-.069 1.611-.607 2.047-1.348 2.047a5.735 5.735 0 0 1-1.48-.307 5.932 5.932 0 0 0-1.579-.307 1.7 1.7 0 0 0-1.642 1.083c-1.792-3.963-1.022-5.306.563-5.306m5.478-4.609c1.547 0 3.692 1.084 5.535 3.248-.4 3.045-5.565.113-2.385 5.538h-.009q-1.689 0-5.074-5.531c-.553-2.171.394-3.255 1.939-3.255m29.926-4.456c.608 0 1.336.393 2.294 1.541 1.784 3.9 1.941 6.014.952 6.014-.947 0-2.946-1.94-5.573-6.108.757-.544 1.405-1.447 2.327-1.447m-17.967-1.192a3.28 3.28 0 0 1 2.062 1.016c1.071 3.529-3.121 1.316-.751 6.267a.684.684 0 0 1 .358-.106c.39 0 .907.352 1.733 1.431a2.621 2.621 0 0 0 .913.279.634.634 0 0 0 .606-.7c2.1 2.062 2.7 5.972 4.215 6.132.755-1.041-1.64-5.539-1.142-6.857 2.338 2.962 2.635-.632 6.206 6.274-2.086 2.3-3.954 7.985-8.531 7.985a8.794 8.794 0 0 1-4.561-1.546.989.989 0 0 0 .2.022c1.934 0-3.037-7.587-1.676-8.216 1.886 2.538 2.665 5.058 4.576 6.046-1.695-5.319 2.835-.642 1.865-5.02a28.568 28.568 0 0 0-3.272-2.754 1.107 1.107 0 0 1-.692.255c-.665 0-1.583-.611-3.077-2.372a1.713 1.713 0 0 0 .675.155c.045 0 .089 0 .131-.006a23.055 23.055 0 0 1-4.643-4.183 1.242 1.242 0 0 0 .312.042c.875 0 1.462-1.037 2.1-2.073s1.322-2.073 2.392-2.073m-102.7-4.464l-.019.288-.384.246.059-.526.344-.008m132.22-2.379c4.421 8.98 2.442 12.338-.937 12.338a9.77 9.77 0 0 1-5.953-2.616c-2.854-7.206-1.394-8.42.907-8.421a15.837 15.837 0 0 1 1.861.157 15.6 15.6 0 0 0 1.846.158c1.161 0 2.078-.322 2.276-1.616m-119.709-.2c1.148 2.244 2.438 6.032 1.794 6.032-.217 0-.656-.434-1.4-1.507-.529-1.945-1.529-4.416-.4-4.525m125.587-.593c.338 0 .925.58 1.967 2.272.434 1.291.448 2.841-.235 2.841-.449 0-1.2-.671-2.332-2.528.2-.62-.02-2.585.6-2.585m-37.58-2.809c.416 0 1 .464 1.76 1.821a.531.531 0 0 0-.148-.022.987.987 0 0 0-.663.452.985.985 0 0 1-.664.452 1.569 1.569 0 0 1-1.043-.833c-.165-.591.067-1.87.758-1.87m-68.849-4.481l.749 2.523.513 2.216-.7-2.367-.564-2.372M591.08 85.2c.782 0 2.473 1.45 3.766 3.35.156.688-.058.96-.469.96a6.538 6.538 0 0 1-3.172-1.862c-.776-1.745-.67-2.448-.125-2.448m-98.824-4.776l2.218 2.121-.066 1.709c.688 1.391.663 2.4.238 2.4a1.524 1.524 0 0 1-.912-.857l.073-.014-1.573-1.459.022-3.9m-5.76-.18c1.315 3.261.759 4.006-.378 4.006a8.206 8.206 0 0 1-1.647-.264 8.28 8.28 0 0 0-1.688-.264c-1.16 0-1.848.7-.895 3.693a1.21 1.21 0 0 1 1.174-1.089c.569 0 1.293.423 2.057 1.728-2.045.254-2.932 3.524-5.023 3.524-.917 0-2.067-.63-3.648-2.421 2.6 4.646 1.063 5.835-.446 5.835a3.1 3.1 0 0 1-1.2-.245c1.156-.342-.333-1.518-1.77-4.939H473c-1.43 0-.859 2.119-.17 4.237s1.5 4.237.538 4.237a1.352 1.352 0 0 1-.511-.13c-2.45-3.837-.175-2.422-2.269-5.861a2.169 2.169 0 0 0-.829-.174 3.843 3.843 0 0 0-2.439 1.432 3.9 3.9 0 0 1-2.543 1.431 4.341 4.341 0 0 1-2.885-1.581c5.5-8.758 13.219-12.316 24.606-13.154m31.387-10.561l.465.857-1.979.228-.573-1.048 2.087-.037m-334.852-6.821a2.039 2.039 0 0 1 .9.229c-.178.549.417.939 1.021 1.334a4.961 4.961 0 0 1-2.328.479 1.885 1.885 0 0 1-1.638-.47 2.6 2.6 0 0 1 2.046-1.572m-66.589 110.742c.636-.406 1.259-.8 1.905-1.217l-.147-.4a13.941 13.941 0 0 1-5.319 1.865 8.137 8.137 0 0 0 .938 1.4l.067-.016.975-.622a1.068 1.068 0 0 1 1.121-1.057 2.489 2.489 0 0 1 .46.048m2.1-1.345c.988-.634 1.989-1.278 2.993-1.925a9.88 9.88 0 0 0 .5-1.223 23.772 23.772 0 0 1-3.764 2.839l.275.309m81.457-7.863l.142-.1h-.093l-.049.1m-74.926-1.3c.856-.265 1.953-.215 2.773-.487a2.262 2.262 0 0 0-1.257-.39 3.623 3.623 0 0 0-.894.137 3.324 3.324 0 0 1-.764.136 1.012 1.012 0 0 1-.227-.024 5.842 5.842 0 0 1 .369.628m26.284 1.459a13.247 13.247 0 0 0 4.768-3.006 144.702 144.702 0 0 0-4.768 3.006m-23.5-1.952a1.658 1.658 0 0 0 .742-.442 3.083 3.083 0 0 0 .485-.829 5.9 5.9 0 0 0-1.679-.938c-.162 0-.251.114-.225.412a4.161 4.161 0 0 0 .677 1.8m1.483-1.989c.094-.321.179-.655.257-1a4.138 4.138 0 0 1-1.9-.725 6.678 6.678 0 0 0 1.646 1.722m32.173-1.37a1.419 1.419 0 0 0 .736-.165c.354-.2.4-1.079.708-1.424a10.17 10.17 0 0 1 1.15-1.034l-4.037 2.489c.472.024.988.134 1.443.134M131.87 155.5c.214-.18.427-.361.655-.526a.851.851 0 0 0-.448-.238c-.176 0-.263.21-.207.764m35.013-.474a35.561 35.561 0 0 1 7.833-1.883 5.108 5.108 0 0 0-.948-2q-3.473 1.868-6.885 3.879m-25.078-5.66l.376-.339a3.7 3.7 0 0 1-1.559-1.331c-.917.251-.226 1.261.507 2.258.223-.176.434-.367.644-.558l-.456-.619.488.589m32.9 1.276a12.924 12.924 0 0 0 7.882-2.927 18.164 18.164 0 0 0 2.067-1.921q-5.005 2.232-9.949 4.848m-29.934-6.38a13.281 13.281 0 0 0 .3-1.911 5.891 5.891 0 0 0-.991.452l.539 1.459h.151m32.463-.541q.887-.417 1.8-.872a5.055 5.055 0 0 0-1.158-.761l.118.119c.219.873-.119 1.274-.7 1.289l-.051.225m20.4-9.324a16.524 16.524 0 0 1-1.552-2.567c-.44.265-.893.515-1.328.786-.78.5-1.537 1.026-2.3 1.543a15.68 15.68 0 0 1 1.193 2.194.487.487 0 0 1-.438.293c-.473 0-1.17-.634-2-1.651a65.8 65.8 0 0 0-5.654 4.461l.169.2.019.1a17.226 17.226 0 0 1 5.75-1.108 12.087 12.087 0 0 1 1.985.161 3.913 3.913 0 0 1 1.93-.49c.078 0 .157 0 .238.006-1.18-3.12-.117-3.952 1.478-3.952.166 0 .338.009.514.025m4.943-6.006c.31-.261.615-.533.924-.79-.387.211-.769.429-1.156.641l.232.149m3.218-68.214v117.48H77.6l.181-.287c2.672-4.207 5.546-8.285 10.08-10.558a3.611 3.611 0 0 0 2.614 2.128l-.564-.818 2.029 1.129c.652-.323-1.274-2.1-2.036-2.1a.374.374 0 0 0-.084.008c2.794-2.71 6.02-4.311 8.342-7.393a2.208 2.208 0 0 0 1.355.832.962.962 0 0 0 .576-.244.957.957 0 0 1 .564-.243 2.3 2.3 0 0 1 1.421.96 2.678 2.678 0 0 0-1.044-1.058c3.036-.507 3.232-.534 2.217-5.389 2.777-4.618 6.439-8.094 10.2-11.415a140.235 140.235 0 0 0 11.046-10.288 133.439 133.439 0 0 1 12.643-8.634c2.727-1.7 5.5-3.356 8.242-5.109a96.688 96.688 0 0 0 10.345-8.553c-.829-1.741-.371-2.97-.86-4.575.955-1.117 5.991.608 3.927-3.136l-5.55 1.223c1.7.628.97 2.184 1.511 3.567-5.586-8.16 2.685-8.133 5.917-9.182.968 2.243-2.619.569-.465 3.673 4.329-1.2 5.47-5.774 9.274-6.992.519-.936-1.755-3.034-1.229-3.966a1.538 1.538 0 0 1 1.236-.435 9.278 9.278 0 0 1 1.316.134 9.148 9.148 0 0 0 1.279.133c.83 0 1.407-.3 1.247-1.574a9.963 9.963 0 0 1-.83-1.651 5.671 5.671 0 0 0-2.607-.688c-1.985 0-3.587 1.247-5.189 2.494s-3.2 2.493-5.189 2.493a5.011 5.011 0 0 1-1.242-.16c-5.206 3.592-10.432 8.254-15.981 12.619-5.588 4.323-11.716 8.068-18.811 9.94-.285 1.573-1.7 4.36-3.785 4.36a3.2 3.2 0 0 1-2-.817c4.486-1.311 6.434-8.522 9.857-11.923 4.132-4.042 12.485-2.483 16.238-6.476 1.322-1.081-.6-3.373.108-4.695 21.852-12.319 42.012-23.2 61.9-34.819m-15.258-2.134a2.8 2.8 0 0 1 1.987 1.37 2.951 2.951 0 0 1-4.169 1.674c.19-.917-.647-.58-1.253-1.007h.042a2.675 2.675 0 0 0 1.7-1.018 2.679 2.679 0 0 1 1.7-1.019m339.276-2.927a5.319 5.319 0 0 1 3.586 1.513 3.941 3.941 0 0 1-3.174 3.2 10.065 10.065 0 0 1-2.439.308c-1.258 0-2.593-.277-3.168-1.263a5.829 5.829 0 0 1 5.2-3.762m6.493-.293c.663 0 1.437.352 2.507 1.664a.946.946 0 0 0-.241-.032 1.747 1.747 0 0 0-1.122.656 1.757 1.757 0 0 1-1.127.657c-.59 0-1.36-.581-2.547-2.516a1.825 1.825 0 0 0 .381.041 3.319 3.319 0 0 0 1.072-.235 3.332 3.332 0 0 1 1.077-.235m4.7-1.779c.643 0 1.488.548 2.67 2.246h-.01a3.727 3.727 0 0 0-1.548.474 3.736 3.736 0 0 1-1.548.474c-.709 0-1.479-.41-2.389-1.769a.689.689 0 0 0 .516.395 1.88 1.88 0 0 0 .955-.91 1.84 1.84 0 0 1 1.354-.91m-335.215-3.313v4.058c-.062.051-.123.1-.183.155l-1.985 2.626a5.8 5.8 0 0 0-1.946-.34c-2.879 0-5.236 2.172-7.93 2.848-.645-.834-1-.494-1.745-1.676a9.7 9.7 0 0 1 8.15-3.677 21.632 21.632 0 0 1 2.485.157 16.266 16.266 0 0 1 3.154-4.151m251.28 121.398a19.812 19.812 0 0 0 6.525-4.446c-2.113 1.568-4.311 3.025-6.525 4.446m11.732-8.255a7.136 7.136 0 0 0 2.78-.765 3.344 3.344 0 0 0 .659-1.35l-2.4 1.3-1.042.82m52.729-9.014c.307-.251.607-.5.915-.752-.244-.024-.422-.053-.635-.081-.087.281-.185.556-.28.833m-40.5-.232q.462-.267.923-.529l-.313-.214-.347.227-.263.516m72.617-7.47h.453l-.46-.4.007.4m1.726-1.431l.135-.332-.528-.32-.132.34.525.312m-61.338-.125c.294-.09.593-.175.894-.259q.615-.416 1.23-.836l-.223-.192c-.628.445-1.265.869-1.9 1.287m47.145-14.317l-.435-.756-.09.383.525.373m11.866.446c.5-.082 1.96.113 2.55-.482a4.912 4.912 0 0 1 1.142-.847 11 11 0 0 1-1.63-2.476l.752-.572a21.1 21.1 0 0 0-3.415.732l.6 3.645m-4.178-5.51l1.885-.35-.414-.563-1.881.351.41.562M455.152 99.65c.263-.165.545-.308.81-.472l-.2-.229c-.2.239-.409.462-.611.7m2.771-2.368a8.981 8.981 0 0 1 .083-1c-.736.871-1.473 1.734-2.177 2.587l-.057.065 1.748-1.123-.058.487c.612-.36 1.213-.731 1.841-1.074l-1.38.053M426.141 1.7a4.588 4.588 0 0 1 3.275 1.814c-.406 2.468-4.313.257-3.705 4.224a22.932 22.932 0 0 1 2.713-.163q.726 0 1.457.048a27.511 27.511 0 0 1 6.539-.786 30.52 30.52 0 0 1 15.739 4.562c2.032 3.415-.556 1.681 1.478 5.1 1.574 2.919 2.105 1.482 3.325 2.942-1.111.72-2.4-.458-2.068 2.281 2.73 3.023 4.433 1.761 7.585 6.56a32.569 32.569 0 0 0-5.9-2.284c.5.616 1 1.235 1.514 1.888.835 1.54 1.537 2.837 2.157 3.991a15.232 15.232 0 0 1 5.142 3.089.591.591 0 0 1-.618.748 3.72 3.72 0 0 1-.784-.13 3.7 3.7 0 0 0-.8-.131.64.64 0 0 0-.708.635 122.98 122.98 0 0 1 2.514 5.152 3.836 3.836 0 0 1 .431-.026 4.556 4.556 0 0 1 3.143 1.493 18.023 18.023 0 0 1-3.223-.7c.864 1.892 1.891 4.2 3.4 7.564.132 1.252.223 2.411.273 3.5a22.519 22.519 0 0 1 7.464 3.077c1.94 6.09 5.531 9.644 8.619 13.816.416-.212.84-.418 1.249-.633 1.112-.684.834-3.506 1.636-4.474 2.369-2.838 5.316-2.451 7.684-3.062a3.76 3.76 0 0 1 1.245 1.7l-.674.373c-4.015 2.7-6.574 7.913-10.15 10.348-.675.3-1.333.616-2 .919l-.6.673-.186-.314c-3.679 1.684-7.317 3.431-11.012 5.072a233.138 233.138 0 0 1-7.226 3.038l-.142.14c-.413 3.638-2.358 6.825-4.667 9.8 1.48.058 3.667 1.234 6.619 3.4l-6.532.25c1.5 1.482 2.1 4.3 2.816 5 .758-.2 1.358-.991 2.165-.991.725 0 1.616.641 2.939 2.932a3.158 3.158 0 0 0-1.395-.383 2.327 2.327 0 0 0-1.914 1.231c4.781-.038 8.059-4.706 12.575-4.706.14 0 .282 0 .425.014 1.339-3.217 3.189-5.493 6.344-5.493a8.088 8.088 0 0 1 1.954.257c-.667.8-1.36 1.575-2.041 2.362 7.721-4.783 15.354-9.546 23.513-13.583a73.815 73.815 0 0 1 9.254-3.616.4.4 0 0 1 .356-.321.691.691 0 0 1 .322.1c1.933-.616 3.9-1.208 5.913-1.757 5.7-1.553 11.588-2.918 16.811-4.569 10.574-4.786 35.233-18.925 66.009-36.361l-14.335 13.836c-3.572 3.5-7.129 7.052-9.737 9.815-1.183 1.222-2.174 2.249-2.9 3.056.474.072.966.166 1.453.256-.2.554-.395 1.119-.6 1.7 5.286 1.248-6.241 10.8-11.054 15.254a103.034 103.034 0 0 1-11.944 9.637c-3.852 2.556-7.6 4.85-11.564 7.628-2.792 1.976-5.489 4.06-8.136 6.2.191.392.366.862.686 1.693a12.839 12.839 0 0 1-2.591 3.9c-.868.921-2.222 1.819-3.248 2.757l.157.3-.3-.145a6.274 6.274 0 0 0-.761.826 3.987 3.987 0 0 0-.576 1.3 26.984 26.984 0 0 1 5.434.856l.381.089c-.592-1.629-.32-2.29.346-2.29.884 0 2.461 1.163 3.634 2.776l.108.406c2.44.474 4.992.9 7.981 1.447l-1.064.955c.122.2.253.426.394.691a6.311 6.311 0 0 0-.5 1.321c1.407-.064 2.051-1.134 3.417-1.134a5.158 5.158 0 0 1 2.688 1.007c-.715.6-1.222 1.034-2.2 1.863l4.844.06c-.5-1.808.006-2.561.964-2.561 1.18 0 3.044 1.14 4.554 2.855-.132 1.67-.837 3.467-2.066 3.467a2.9 2.9 0 0 1-2.019-1.324 7.888 7.888 0 0 1-1.519.446l1.519 2.694a6.838 6.838 0 0 1 1.83-.228 14.671 14.671 0 0 1 3.534.513 7.4 7.4 0 0 0 1.832.222c1.559 0 3.04-.422 4.92-.534.239 6.357-8.84 2.471-11.616 5.147a6.879 6.879 0 0 0 1.852.249 13.78 13.78 0 0 0 2.088-.207 13.868 13.868 0 0 1 2.128-.207 9.249 9.249 0 0 1 5.116 1.7c.848 3.587-3.043 2.374-5.005 3.034-1.985.665-3.837 1.488-5.771 2.3.537 2 1.049 3.893 1.618 6.006l5.547-1.68.988 2.038a457.893 457.893 0 0 0 9.414-6.081 6.2 6.2 0 0 0 3.532 1.084 10.71 10.71 0 0 0 4.253-1.057v-.01a3.463 3.463 0 0 1 2.521-1.349q.079 0 .159.006.714-.4 1.428-.816l-.153-.062a11.076 11.076 0 0 1 1.114-.5c2.634-1.52 5.26-2.919 7.795-2.919a6.181 6.181 0 0 1 2.989.751 4.024 4.024 0 0 1 .82 3.418 1.8 1.8 0 0 1 .7.275l-.7-.258a11.919 11.919 0 0 1-.7 2.444l.365.5-.539-.071a53.596 53.596 0 0 1-.662 1.547l.127.2-.256.1c-1.375 3.089-2.841 6.4-1.443 9.42a6.339 6.339 0 0 0 1.272.133c5.643 0 8.32-8.2 11.465-12.272 1.588 3.029.828 6.7-1.222 10.479a15.418 15.418 0 0 1 4.709-.795 12.094 12.094 0 0 1 4.112.713c-5.493 5.267-18.687 13.008-23.523 18.457 6.193-1.356 12.188-7.376 19.456-11.006 1.109 2.019-1.4 2.625 1.069 5.167-1.955 2.254-4.324 4.345-5.733 6.813-.577 3.548 3.951.811 3.457 3.714a1.491 1.491 0 0 1-1.216.853 4.076 4.076 0 0 1-2.029-1.111 4.241 4.241 0 0 0-2.441-1.112 2.157 2.157 0 0 0-.277.017h.011c.395 0-1.214 3.237-1.327 3.29a.482.482 0 0 1-.2.035 6.556 6.556 0 0 1-1.23-.247 6.665 6.665 0 0 0-1.5-.247 1.723 1.723 0 0 0-.523.071 6.783 6.783 0 0 0-.706.281c.08.166.161.334.247.5H412.207V10.426l.07-.03c3.578-1.6 5.593-6.809 9.178-6.809a5.554 5.554 0 0 1 3.246 1.266c-.66-2.184.191-3.147 1.441-3.147m6.63-1.705a9.656 9.656 0 0 1 4.888 1.479c-1.173.322-2.962 2.445-5.151 2.445a4.267 4.267 0 0 1-3.115-1.581c.36-1.744 1.774-2.343 3.378-2.343M237.737 531.16c.046 0 .074.33.215.65a.933.933 0 0 0 .886.65h.114c.08.38.027.53-.115.53a3.377 3.377 0 0 1-1.312-1.04 2.5 2.5 0 0 1 .212-.79m.261-3.6c1.958 1.47 1.728 2.75 2.5 4.32a45.793 45.793 0 0 1-2.5-4.32m128.195-43.44c.576.885.972.579 1.615 1.822a10.408 10.408 0 0 1-7.842 3.23 19.827 19.827 0 0 1-3.255-.3c-2.4 3.908-6.435 6.491-10.852 8.277a41.681 41.681 0 0 1-13.437 2.883c-.648.4-.509 2.344-1.074 2.344-.274 0-.713-.456-1.486-1.764-1.794-1.337 1.106-2.963 1.7-3.287 5.569-3.186 16.315-4.364 22.116-8.651l2.232-2.559a5.829 5.829 0 0 0 2.228.442c2.825 0 5.308-1.988 8.053-2.437m4.123-1.988a3.239 3.239 0 0 1 1.614.477c-.295.9.6.639 1.162 1.123a1.465 1.465 0 0 0-.161-.01 3.043 3.043 0 0 0-1.719.861 3.035 3.035 0 0 1-1.719.862c-.588 0-1.238-.392-2.006-1.549a3.658 3.658 0 0 1 2.829-1.764m7.186-2.832c1.093 0 2.216.245 2.289.665a2.867 2.867 0 0 1-2.1 1.385 1.958 1.958 0 0 1-1.038-.325c.246-.533-.309-.981-.874-1.434a4.218 4.218 0 0 1 1.723-.291m-171.315-71.6a2.084 2.084 0 0 1 1.358 1.075.5.5 0 0 1-.1.01 3.148 3.148 0 0 1-1.556-1 .6.6 0 0 1 .3-.082m17.52-12.444c.3 0 .908.592 2.045 2.124-.728.594-.651 1.907-1.277 1.907a1.032 1.032 0 0 1-.543-.22c-.264-1.837-.767-3.811-.225-3.811m5.269-3.948l.063 1.493-.783-.633.72-.86m.237-.521l-.082.336-.155.185-.012-.277.249-.244m.53-2.163l.808.857-1.338 1.306.53-2.163m6.432 34.518a76.778 76.778 0 0 1 8.344-4.168c.646-1.234 2.035-1.548 3.508-1.711l-.1-.177a22.692 22.692 0 0 1 5.393-2.076c.96-1.569 1.593-3.718 2.762-4.841-.519.1-1.029.219-1.533.363-.8.552-1.6 1.119-2.4 1.658-.3.514-.6 1.026-.94 1.518a10.337 10.337 0 0 0-1.055-.209c-.957.63-1.9 1.267-2.878 1.888-2.854 1.783-5.845 3.533-8.965 5.307-.733.5-1.471.99-2.222 1.437a4.229 4.229 0 0 0 .083 1.011m-2.571-7.133a23.141 23.141 0 0 1 6.692-4.517 25.64 25.64 0 0 0 3.291-3.858c-4.354 2.527-8.876 5.247-13.441 7.87a4.819 4.819 0 0 1-2.565 2.531c2.105-.417 3.284-2.06 5.468-2.06a4.665 4.665 0 0 1 .555.034m41.731-12.846a55.498 55.498 0 0 0 4.053-3.044l-5.116 1.307a17.787 17.787 0 0 1 1.063 1.737m-2.232-2.936l.449-.9c-4.752 3.488-10.358 5.949-14.473 9.724a6.4 6.4 0 0 0-1.282-.689.322.322 0 0 0-.16.04 6.367 6.367 0 0 0-.123.986 6.81 6.81 0 0 1 1.583-.155c.461 0 .937.025 1.415.05s.959.05 1.428.05a6.06 6.06 0 0 0 2.211-.332 55.141 55.141 0 0 0 10.782-5.555 5.257 5.257 0 0 1-1.777-1.735l-.91.232.539-1.078c-.08-.424 0-.661.2-.661a.373.373 0 0 1 .119.022m-22.223 3.263a22.07 22.07 0 0 0 7.822-3.692 53.4 53.4 0 0 1 6.179-5.394 32.294 32.294 0 0 0 2.142-2.591 142.5 142.5 0 0 0-13.066 7.763c-1.371.958-1.66 2.886-3.08 3.914m32.816-10.192c1.568-.806 3.189-1.637 4.795-2.461.429-.541.873-1.064 1.289-1.622v-.022a6.6 6.6 0 0 0-2.691 2.217l-.468-.273q-1.46 1.1-2.922 2.161m24.6-14.652l.938-.416-.33-.558a8.793 8.793 0 0 1-.608.974m12.372-4.973a37.734 37.734 0 0 1 7.452-1.516l.329-.534a40.3 40.3 0 0 1 5.486-6 16.621 16.621 0 0 0-4.414 3.8 9.377 9.377 0 0 0-.821-.037 15.891 15.891 0 0 0-6.424 1.687 5.712 5.712 0 0 1-1.608 2.6m-25.6-17.833h117.141v86.586l-.114-.013a11.54 11.54 0 0 0-1.251-.1c-1.145 0-1.967.407-1.37 2.4l2.735-.1v3.694c-1.92.4-4.205.253-5.684.452-.482-2.4 2.819-.1 1.326-3.574-4.746.459-6.99 4.74-11.164 5.383-.73.862 1.184 3.3.459 4.157a1.418 1.418 0 0 1-.948.3 6.753 6.753 0 0 1-1.708-.334 6.59 6.59 0 0 0-1.652-.335c-.679 0-1.169.328-1.237 1.445a9.421 9.421 0 0 1 .544 1.77 5.46 5.46 0 0 0 3.2 1.076 11.245 11.245 0 0 0 5.022-1.724 11.244 11.244 0 0 1 5.022-1.726 5.135 5.135 0 0 1 2.147.473 112.3 112.3 0 0 0 4.675-2.191v5.2a416.456 416.456 0 0 0-60.408 24.8c-2.938 1.5-5.974 2.806-8.977 4.081-2.967 1.341-5.895 2.663-8.651 4.119-4 2.12-7.449 5.233-11.1 7.774-3.444 2.491-7.094 4.423-11.7 4.423q-.339 0-.684-.014c-1.261.244-2.174 2.089-3.493 2.089-.6 0-1.294-.388-2.143-1.5-.376-4.663 8.616-4.527 8.042-10.018l-.562-.145.242.562h-.014a10.21 10.21 0 0 0-5.054 1.539c-1.257 1.007-2.52 1.986-3.989 1.992l-.1-.109a7.863 7.863 0 0 1-2.043.272 9.075 9.075 0 0 1-2.506-.373 7.088 7.088 0 0 1-2.393 4.225c-1.938-.745-2.583-.6-4.086-1.618-.444.336-.888.66-1.332.987.1.3.2.58.267.8-1.028 1.3-1.09 4.02-2.688 4.02a3.43 3.43 0 0 1-1.861-.8l1.1 1.85a11.666 11.666 0 0 0-3.827-.937h-.147c-.641.416-1.282.835-1.924 1.243a2.777 2.777 0 0 0-.18.8l-.493-.376q-1 .635-2.01 1.263a12.555 12.555 0 0 1-3.129 1.979c-3.654 2.354-7.326 4.687-11.021 7.212a104.44 104.44 0 0 0-11.992 9.26 5.344 5.344 0 0 0-3.482-1.58 4.06 4.06 0 0 0-1.62.35v.01a1.089 1.089 0 0 1-1 .8 1.334 1.334 0 0 1-.382-.06c-.233.15-.465.31-.7.47l.106.08a3.279 3.279 0 0 1-.592.26 6.175 6.175 0 0 1-3.447 1.41 5.022 5.022 0 0 1-3.041-1.2 6.665 6.665 0 0 1-1.522-3.04 2.447 2.447 0 0 1-.542-.34l.539.32a10.806 10.806 0 0 1-.236-1.98l-.383-.48.378.14c-.007-.4-.006-.81 0-1.22l-.141-.19.143-.05c.034-2.44.071-5.058-1.7-7.864a3.7 3.7 0 0 0-1.5-.374c-3.081 0-2.666 6.058-3.531 8.888a12.462 12.462 0 0 1-2.008-4.81c-1.567 1.81-3.737 1.31-5.418 1.62a4.816 4.816 0 0 1-1.19-1.72l.5-.28a13.341 13.341 0 0 0 3.057-3.6 9.979 9.979 0 0 1-2.99-1.2c2.186-3.719 8.844-8.457 10.576-12.455-3.758.265-6.105 4.585-9.957 6.654-1.311-1.892.2-2.053-2.165-4.591.684-1.659 1.695-3.12 1.961-5.046-.588-2.978-2.88-1.261-3.349-3.695a.556.556 0 0 1 .475-.575c.869 0 2.607 2.521 3.908 2.592-.277-.009-.08-2.623-.016-2.653a.117.117 0 0 1 .053-.01 4.211 4.211 0 0 1 1.025.427 3.552 3.552 0 0 0 1.23.426.523.523 0 0 0 .116-.012l.4-.141a13.819 13.819 0 0 0-1.691-2.271 2.186 2.186 0 0 0 .261-1.731c1.032.441 1.812 1.7 2.6 3.094a4.487 4.487 0 0 1 1.8-1.5c-2.3-2.392-1.07-3.206-1.041-4.16l-.164-.244c-.988.679-1.982 1.345-2.975 2.012a1.973 1.973 0 0 1-.894.605 124.2 124.2 0 0 1-13.7 8.09 27.407 27.407 0 0 1-5.333 1.907v-88.926a22.157 22.157 0 0 0 5.413-3c.227-.254-1.025-1.825-.511-1.826h.014a.093.093 0 0 1 .044-.011 2.222 2.222 0 0 1 .78.822 2.225 2.225 0 0 0 .78.821.121.121 0 0 0 .107-.113c.3-.256.621-.455.934-.671.014-.554-.008-1.077.009-1.422 1.483-.832 2.949-1.691 4.419-2.541l-.212-.456.446.322c.791-.458 1.592-.9 2.379-1.367q-.315.8-.66 1.561a3.916 3.916 0 0 1 .955-.916l.231-.122-1.553-2.692a2.42 2.42 0 0 1 1.592-.625 3.055 3.055 0 0 1 1.226.283 16.3 16.3 0 0 1 .931 1.879 211.57 211.57 0 0 0 13.455-7.8l.021-.2a1.815 1.815 0 0 0-1.2-.342c-.229 0-.464.018-.694.037s-.454.036-.664.036c-.741 0-1.294-.23-1.206-1.5a3.065 3.065 0 0 1 2.152-1.046c1.454 0 2.626 1.359 3.689 1.669.658-.429 1.285-.853 1.913-1.278l.168-.324c-1.23-.837-2.563-.539-3.842-.877a58.31 58.31 0 0 0 8.615-2.607 1.455 1.455 0 0 1 1.447-.738c.121 0 .246.007.377.02a70.4 70.4 0 0 0 2.3-1l-.583-.654 1.4-3.529 1.363 3.014a3.26 3.26 0 0 1 1.171-.763 3.035 3.035 0 0 0 1.024-.556 8.682 8.682 0 0 1-.951-1.125 2.7 2.7 0 0 0 .657-.324c-.242-1.994.306-3.105 1.872-3.105a5.29 5.29 0 0 1 1.363.21l.648 1.411q2.094-1.266 4.237-2.512l-.054-.075.269-.049c.682-.394 1.36-.784 2.046-1.16q-.647-1.1-1.341-2.325a.224.224 0 0 1 .213-.14c.386 0 1.134.753 1.956 1.86a47.821 47.821 0 0 1 3.027-3.016 4.805 4.805 0 0 1-.034-1.221h.011a1.5 1.5 0 0 1 .719.615q.918-.8 1.868-1.551l-.239-.517c.4-.065.793-.155 1.189-.232a98.051 98.051 0 0 1 16-9.436c-.624 1.329-1.145 2.763-1.7 4.152q1.362-.732 2.7-1.527c-.1-.652.077-.892.394-.892a1.611 1.611 0 0 1 .69.223c.788-.482 1.559-.993 2.331-1.5-.013-.27-.163-.683.085-.683h.026l.31.411a88.167 88.167 0 0 0 2.313-1.606 7.305 7.305 0 0 1-.587-.479l1.019-1.3" fill="#35b463" fill-rule="evenodd"/></svg>